<svg width="78" height="67" viewBox="0 0 78 67" fill="none" xmlns="http://www.w3.org/2000/svg">
<path d="M63.0503 50.052C64.316 51.5637 66.5308 51.634 68.148 49.8762C74.0191 43.5833 77.2535 34.97 77.2535 25.6887C77.2535 16.4075 73.9488 7.68872 68.148 1.50122C66.5308 -0.256592 64.316 -0.186279 63.0503 1.32544C61.8199 2.73169 62.2066 4.52466 63.5777 6.07153C68.2183 11.2043 70.7847 18.095 70.7847 25.6887C70.7847 33.2473 68.2183 40.1379 63.5777 45.2708C62.2066 46.8176 61.8199 48.6106 63.0503 50.052ZM14.4292 50.052C15.6597 48.6106 15.2378 46.8176 13.9019 45.2708C9.26127 40.1379 6.69486 33.2473 6.69486 25.6887C6.69486 18.095 9.26127 11.2043 13.9019 6.07153C15.2378 4.52466 15.6597 2.73169 14.4292 1.32544C13.1636 -0.186279 10.9488 -0.256592 9.33158 1.50122C3.5308 7.68872 0.226112 16.4075 0.226112 25.6887C0.226112 34.97 3.46049 43.5833 9.33158 49.8762C10.9488 51.634 13.1636 51.5637 14.4292 50.052ZM52.2574 39.8215C53.523 41.3333 55.9136 41.3684 57.3902 39.6106C60.4488 35.9192 62.1714 30.9622 62.1714 25.6887C62.1714 20.3801 60.4488 15.4231 57.3902 11.7668C55.9136 9.97388 53.523 10.0442 52.2574 11.5208C51.062 12.9622 51.5542 14.6497 52.7144 16.2668C54.5777 18.7981 55.7027 22.1731 55.7027 25.6887C55.7027 29.1692 54.648 32.6145 52.7144 35.0754C51.5542 36.6926 51.062 38.4153 52.2574 39.8215ZM25.2222 39.8215C26.3824 38.4153 25.9253 36.6926 24.7652 35.0754C22.8316 32.6145 21.7417 29.1692 21.7417 25.6887C21.7417 22.1731 22.9019 18.7981 24.7652 16.2668C25.9253 14.6497 26.3824 12.9622 25.2222 11.5208C23.9566 10.0442 21.566 9.97388 20.0894 11.7668C17.0308 15.4231 15.3081 20.3801 15.3081 25.6887C15.3081 30.9622 17.0308 35.9192 20.0894 39.6106C21.566 41.3684 23.9566 41.3333 25.2222 39.8215ZM38.7222 66.3997C40.6206 66.3997 41.816 65.0286 41.816 62.9543V31.7708C44.0308 30.6458 45.5777 28.3606 45.5777 25.6887C45.5777 21.8567 42.5542 18.8333 38.7222 18.8333C34.9253 18.8333 31.9019 21.8567 31.9019 25.6887C31.9019 28.3606 33.4136 30.6809 35.6636 31.7708V62.9543C35.6636 64.9934 36.9292 66.3997 38.7222 66.3997Z" fill="#006285"/>
</svg>
