<svg width="31" height="36" viewBox="0 0 31 36" fill="none" xmlns="http://www.w3.org/2000/svg">
<path d="M25.1148 19.0184C25.0977 16.0879 26.4254 13.8793 29.1066 12.2508C27.607 10.1023 25.3383 8.9207 22.3477 8.69297C19.516 8.46953 16.418 10.343 15.2836 10.343C14.0848 10.343 11.3434 8.77031 9.18633 8.77031C4.73477 8.83906 0.00390625 12.3195 0.00390625 19.4008C0.00390625 21.4934 0.386328 23.6547 1.15117 25.8805C2.17383 28.8109 5.86055 35.991 9.70625 35.875C11.7172 35.8277 13.1395 34.4484 15.7563 34.4484C18.2957 34.4484 19.6105 35.875 21.8535 35.875C25.7336 35.8191 29.068 29.2922 30.0391 26.3531C24.8355 23.8996 25.1148 19.1688 25.1148 19.0184ZM20.5988 5.91289C22.7773 3.32617 22.5797 0.971484 22.5152 0.125C20.5902 0.236719 18.3645 1.43555 17.0969 2.90938C15.7004 4.49062 14.8797 6.4457 15.0559 8.65C17.1355 8.80898 19.0348 7.73906 20.5988 5.91289Z" fill="white"/>
</svg>
