<svg width="28" height="17" viewBox="0 0 28 17" fill="none" xmlns="http://www.w3.org/2000/svg">
<path d="M27.3875 3.59485L15.4438 15.8054C15.0201 16.2448 14.5492 16.4489 13.9999 16.4489C13.4506 16.4489 12.9483 16.2291 12.5403 15.8054L0.612272 3.59485C0.266987 3.23387 0.0786495 2.81011 0.0786495 2.29218C0.0786495 1.24064 0.894777 0.424509 1.93063 0.424509C2.43286 0.424509 2.9194 0.628541 3.28038 0.989521L13.9842 11.9915L24.7194 0.989521C25.0804 0.628541 25.5512 0.424509 26.0692 0.424509C27.105 0.424509 27.9211 1.24064 27.9211 2.29218C27.9211 2.79442 27.7328 3.23387 27.3875 3.59485Z" fill="#C4C4C4"/>
</svg>
