<svg width="29" height="29" viewBox="0 0 29 29" fill="none" xmlns="http://www.w3.org/2000/svg">
<path d="M5.87939 14.1329C5.87939 14.406 5.99773 14.679 6.2071 14.8793L12.2151 20.8782C12.4335 21.0875 12.6702 21.1877 12.9342 21.1877C13.5077 21.1877 13.9264 20.778 13.9264 20.2227C13.9264 19.9314 13.8172 19.6857 13.626 19.5036L11.5778 17.4281L8.93799 15.0159L11.059 15.1433H22.0918C22.6926 15.1433 23.1113 14.7246 23.1113 14.1329C23.1113 13.5321 22.6926 13.1133 22.0918 13.1133H11.059L8.94709 13.2408L11.5778 10.8285L13.626 8.75302C13.8172 8.57096 13.9264 8.32518 13.9264 8.03388C13.9264 7.4786 13.5077 7.06897 12.9342 7.06897C12.6702 7.06897 12.4244 7.1691 12.1877 7.39668L6.2071 13.3773C5.99773 13.5776 5.87939 13.8507 5.87939 14.1329Z" fill="#37355B"/>
</svg>
