<svg width="26" height="26" viewBox="0 0 26 26" fill="none" xmlns="http://www.w3.org/2000/svg">
<path d="M7.42188 25.6172C8.08984 25.6172 8.58203 25.2891 9.39062 24.5742L13.4102 21.0352H20.4648C23.9922 21.0352 25.9727 18.9961 25.9727 15.5156V6.41016C25.9727 2.92969 23.9922 0.890625 20.4648 0.890625H5.52344C2.00781 0.890625 0.015625 2.92969 0.015625 6.41016V15.5156C0.015625 19.0078 2.06641 21.0352 5.44141 21.0352H5.92188V23.9062C5.92188 24.9492 6.47266 25.6172 7.42188 25.6172ZM8.00781 22.9922V19.6523C8.00781 18.9609 7.70312 18.6914 7.04688 18.6914H5.60547C3.40234 18.6914 2.34766 17.5781 2.34766 15.4453V6.48047C2.34766 4.34766 3.40234 3.23438 5.60547 3.23438H20.3945C22.5859 3.23438 23.6406 4.34766 23.6406 6.48047V15.4453C23.6406 17.5781 22.5859 18.6914 20.3945 18.6914H13.2812C12.5664 18.6914 12.2148 18.8086 11.7227 19.3242L8.00781 22.9922ZM13 12.9023C13.6445 12.9023 14.0078 12.5391 14.0312 11.8594L14.207 6.22266C14.2305 5.53125 13.7148 5.02734 12.9883 5.02734C12.2617 5.02734 11.7578 5.51953 11.7812 6.21094L11.9453 11.8594C11.9688 12.5273 12.3438 12.9023 13 12.9023ZM13 16.793C13.7617 16.793 14.3828 16.2422 14.3828 15.4922C14.3828 14.7539 13.7617 14.2031 13 14.2031C12.2383 14.2031 11.6172 14.7539 11.6172 15.4922C11.6172 16.2305 12.25 16.793 13 16.793Z" fill="#006285"/>
</svg>
