<svg width="83" height="71" viewBox="0 0 83 71" fill="none" xmlns="http://www.w3.org/2000/svg">
<path d="M29.457 52.6211H70.3789C72.0312 52.6211 73.543 51.3203 73.543 49.457C73.543 47.6289 72.0312 46.3281 70.3789 46.3281H30.2656C28.5781 46.3281 27.5234 45.168 27.2773 43.375L26.75 39.7188H70.6602C76.0391 39.7188 78.8867 36.4492 79.6602 31.1055L82.2969 13.4922C82.3672 13.0352 82.4375 12.4375 82.4375 12.0508C82.4375 9.97656 80.9961 8.57031 78.5703 8.57031H22.2148L21.6875 4.77344C21.2305 1.71484 20 0.167969 16.0977 0.167969H4.03906C2.28125 0.167969 0.734375 1.71484 0.734375 3.50781C0.734375 5.33594 2.28125 6.88281 4.03906 6.88281H15.043L20.4922 44.0781C21.2656 49.3867 24.0781 52.6211 29.457 52.6211ZM75.125 14.8633L72.9102 30.4727C72.6289 32.2656 71.6797 33.3906 69.957 33.3906L25.8359 33.4258L23.1289 14.8633H75.125ZM32.3398 70.2695C35.75 70.2695 38.4922 67.5273 38.4922 64.1172C38.4922 60.707 35.75 57.9648 32.3398 57.9648C28.9297 57.9648 26.1875 60.707 26.1875 64.1172C26.1875 67.5273 28.9297 70.2695 32.3398 70.2695ZM64.8242 70.2695C68.2344 70.2695 70.9414 67.5273 70.9414 64.1172C70.9414 60.707 68.2344 57.9648 64.8242 57.9648C61.4141 57.9648 58.6367 60.707 58.6367 64.1172C58.6367 67.5273 61.4141 70.2695 64.8242 70.2695Z" fill="#006285"/>
</svg>
