<svg width="12" height="12" viewBox="0 0 12 12" fill="none" xmlns="http://www.w3.org/2000/svg">
<path d="M11.92 5.61947C11.8724 5.49682 11.801 5.38477 11.71 5.28975L6.71 0.293872C6.45634 0.0404225 6.08663 -0.0585606 5.74012 0.0342082C5.39362 0.126977 5.12297 0.397404 5.03012 0.743622C4.93728 1.08984 5.03634 1.45925 5.29 1.7127L8.59 4.99998H1C0.447715 4.99998 0 5.44733 0 5.99916C0 6.55099 0.447715 6.99833 1 6.99833H8.59L5.29 10.2856C5.10069 10.4732 4.9942 10.7286 4.9942 10.995C4.9942 11.2614 5.10069 11.5168 5.29 11.7044C5.47777 11.8936 5.73336 12 6 12C6.26664 12 6.52223 11.8936 6.71 11.7044L11.71 6.70857C11.801 6.61355 11.8724 6.5015 11.92 6.37885C12.02 6.13558 12.02 5.86273 11.92 5.61947Z" fill="white"/>
</svg>
