<svg width="85" height="62" viewBox="0 0 85 62" fill="none" xmlns="http://www.w3.org/2000/svg">
<path d="M12.4414 61.1328H72.5235C80.1524 61.1328 84.0899 57.1602 84.0899 49.6367V11.668C84.0899 4.14453 80.1524 0.207031 72.5235 0.207031H12.4414C4.84769 0.207031 0.875031 4.14453 0.875031 11.668V49.6367C0.875031 57.1953 4.84769 61.1328 12.4414 61.1328ZM7.87112 12.3008C7.87112 8.92578 9.66409 7.23828 12.8985 7.23828H72.0664C75.3008 7.23828 77.0938 8.92578 77.0938 12.3008V14.832H7.87112V12.3008ZM12.8985 54.1016C9.66409 54.1016 7.87112 52.4141 7.87112 49.0391V23.0938H77.0938V49.0391C77.0938 52.4141 75.3008 54.1016 72.0664 54.1016H12.8985ZM17.6797 47.7383H26.293C28.3672 47.7383 29.7735 46.3672 29.7735 44.3984V37.8594C29.7735 35.8906 28.3672 34.5195 26.293 34.5195H17.6797C15.6407 34.5195 14.2344 35.8906 14.2344 37.8594V44.3984C14.2344 46.3672 15.6407 47.7383 17.6797 47.7383Z" fill="#006285"/>
</svg>
