<svg width="19" height="14" viewBox="0 0 19 14" fill="none" xmlns="http://www.w3.org/2000/svg">
<path d="M0.374023 7.07129C0.374023 9.375 1.23535 11.4873 2.73926 13.0664C3.00586 13.3535 3.38867 13.333 3.61426 13.0801C3.83984 12.8408 3.79199 12.4854 3.53906 12.2119C2.24707 10.8584 1.54297 9.04688 1.54297 7.07129C1.54297 5.0957 2.24707 3.28418 3.53906 1.93066C3.79199 1.65723 3.83984 1.30176 3.61426 1.05566C3.38867 0.80957 3.00586 0.789062 2.73926 1.07617C1.23535 2.64844 0.374023 4.76758 0.374023 7.07129ZM18.6191 7.07129C18.6191 4.76758 17.7578 2.64844 16.2539 1.07617C15.9805 0.789062 15.5977 0.80957 15.3721 1.05566C15.1533 1.30176 15.1943 1.65723 15.4541 1.93066C16.7461 3.28418 17.4502 5.0957 17.4502 7.07129C17.4502 9.04688 16.7461 10.8584 15.4541 12.2119C15.1943 12.4854 15.1533 12.8408 15.3721 13.0801C15.5977 13.333 15.9805 13.3535 16.2539 13.0664C17.7578 11.4873 18.6191 9.375 18.6191 7.07129ZM2.8623 7.07129C2.8623 8.71191 3.4502 10.2363 4.50293 11.3779C4.77637 11.6787 5.17285 11.6787 5.40527 11.4121C5.6377 11.1523 5.57617 10.8242 5.31641 10.5371C4.48242 9.60059 4.03125 8.39062 4.03125 7.07129C4.03125 5.74512 4.48242 4.54199 5.31641 3.60547C5.57617 3.31836 5.6377 2.9834 5.40527 2.73047C5.17285 2.45703 4.77637 2.46387 4.50293 2.75781C3.4502 3.90625 2.8623 5.43066 2.8623 7.07129ZM16.124 7.07129C16.124 5.43066 15.5361 3.90625 14.4902 2.75781C14.2168 2.46387 13.8135 2.45703 13.5811 2.73047C13.3555 2.9834 13.4102 3.31836 13.6699 3.60547C14.5039 4.54199 14.9551 5.74512 14.9551 7.07129C14.9551 8.39062 14.5039 9.60059 13.6699 10.5371C13.4102 10.8242 13.3555 11.1523 13.5811 11.4121C13.8135 11.6787 14.2168 11.6787 14.4902 11.3779C15.5361 10.2363 16.124 8.71191 16.124 7.07129ZM5.35742 7.07129C5.35742 8.00098 5.67188 8.87598 6.21875 9.56641C6.47168 9.8877 6.90234 9.89453 7.1416 9.62109C7.36719 9.36816 7.28516 9.06055 7.05957 8.74609C6.71094 8.28809 6.51953 7.70703 6.51953 7.07129C6.51953 6.43555 6.71094 5.85449 7.05957 5.39648C7.28516 5.0752 7.36719 4.76758 7.1416 4.51465C6.90234 4.24805 6.47168 4.25488 6.21875 4.56934C5.67188 5.2666 5.35742 6.1416 5.35742 7.07129ZM13.6357 7.07129C13.6357 6.1416 13.3213 5.2666 12.7676 4.56934C12.5215 4.25488 12.0908 4.24805 11.8516 4.51465C11.6191 4.76758 11.7012 5.0752 11.9336 5.39648C12.2822 5.85449 12.4668 6.43555 12.4668 7.07129C12.4668 7.70703 12.2822 8.28809 11.9336 8.74609C11.7012 9.06055 11.6191 9.36816 11.8516 9.62109C12.0908 9.89453 12.5215 9.8877 12.7676 9.56641C13.3213 8.87598 13.6357 8.00098 13.6357 7.07129ZM9.49316 8.73926C10.3955 8.73926 11.1611 7.98047 11.1611 7.06445C11.1611 6.14844 10.3955 5.39648 9.49316 5.39648C8.59766 5.39648 7.8252 6.14844 7.8252 7.06445C7.8252 7.98047 8.59766 8.73926 9.49316 8.73926Z" fill="#006285"/>
</svg>
