<svg width="15" height="15" viewBox="0 0 15 15" fill="none" xmlns="http://www.w3.org/2000/svg">
<path fill-rule="evenodd" clip-rule="evenodd" d="M0.5 7.5C0.5 11.366 3.63401 14.5 7.5 14.5C9.35652 14.5 11.137 13.7625 12.4497 12.4497C13.7625 11.137 14.5 9.35652 14.5 7.5C14.5 3.63401 11.366 0.5 7.5 0.5C3.63401 0.5 0.5 3.63401 0.5 7.5ZM7.5 3.125C6.56158 3.1244 5.69421 3.6248 5.225 4.4375C5.05257 4.70874 5.04273 5.05268 5.19936 5.33334C5.356 5.61399 5.65389 5.78619 5.97527 5.78184C6.29665 5.77749 6.58977 5.59729 6.73875 5.3125C6.89567 5.0407 7.18615 4.87375 7.5 4.875C7.98325 4.875 8.375 5.26675 8.375 5.75C8.375 6.23325 7.98325 6.625 7.5 6.625C7.01675 6.625 6.625 7.01675 6.625 7.5V8.375C6.625 8.85825 7.01675 9.25 7.5 9.25C7.98325 9.25 8.375 8.85825 8.375 8.375V8.2175C9.56935 7.78413 10.2819 6.5576 10.0667 5.3054C9.85157 4.05321 8.7705 3.13486 7.5 3.125ZM7.5 11.8799C7.98325 11.8799 8.375 11.4881 8.375 11.0049C8.375 10.5216 7.98325 10.1299 7.5 10.1299C7.01675 10.1299 6.625 10.5216 6.625 11.0049C6.625 11.4881 7.01675 11.8799 7.5 11.8799Z" fill="#D0D7DD"/>
</svg>
