<svg width="40" height="40" viewBox="0 0 40 40" fill="none" xmlns="http://www.w3.org/2000/svg">
<path d="M27.5639 25.3607C31.5575 23.1476 34.5853 21.4614 34.8463 21.3305C35.6808 20.8823 36.5431 19.6965 34.8463 18.7756C34.2984 18.486 31.3486 16.852 27.5639 14.7454L22.3176 20.0923L27.5636 25.3607H27.5639Z" fill="#FFD900"/>
<path d="M22.3177 20.0924L5.6123 37.0835C6.00415 37.136 6.44686 37.031 6.96903 36.7414C8.06482 36.1363 19.6806 29.7343 27.5643 25.362L22.3177 20.0924Z" fill="#F43249"/>
<path d="M22.3176 20.0925L27.5636 14.7715C27.5636 14.7715 8.14383 4.07628 6.96859 3.4452C6.52645 3.17985 6.03028 3.10139 5.58643 3.17985L22.3176 20.0922V20.0925Z" fill="#00EE76"/>
<path d="M22.3177 20.0925L5.58623 3.18018C4.90715 3.33852 4.33325 3.94394 4.33325 5.18159V35.0813C4.33325 36.2149 4.7774 37.0311 5.61195 37.1096L22.3174 20.0922L22.3177 20.0925Z" fill="#00D3FF"/>
</svg>
