<svg width="25" height="25" viewBox="0 0 25 25" fill="none" xmlns="http://www.w3.org/2000/svg">
<path d="M6.64062 10.2539C5.429 10.2539 4.44336 11.2396 4.44336 12.4512V18.4082C4.44336 19.6198 5.429 20.6055 6.64062 20.6055C7.85225 20.6055 8.83789 19.6198 8.83789 18.4082V12.4512C8.83789 11.2396 7.85225 10.2539 6.64062 10.2539Z" fill="white"/>
<path d="M2.97852 12.4512C2.97852 12.2399 3.0064 12.0358 3.04092 11.8343C2.1582 12.1196 1.51367 12.9395 1.51367 13.916V16.9434C1.51367 17.9199 2.1582 18.7398 3.04092 19.0251C3.0064 18.8236 2.97852 18.6195 2.97852 18.4082V12.4512Z" fill="white"/>
<path d="M18.3594 10.2539C17.1478 10.2539 16.1621 11.2396 16.1621 12.4512V18.4082C16.1621 19.6198 17.1478 20.6055 18.3594 20.6055C18.5796 20.6055 18.7882 20.5631 18.9889 20.5025C18.7162 21.4063 17.886 22.0703 16.8945 22.0703H14.5624C14.259 21.2196 13.4536 20.6055 12.5 20.6055C11.2884 20.6055 10.3027 21.5911 10.3027 22.8027C10.3027 24.0144 11.2884 25 12.5 25C13.4536 25 14.259 24.3858 14.5624 23.5352H16.8945C18.9137 23.5352 20.5566 21.8922 20.5566 19.873V18.4082V12.4512C20.5566 11.2396 19.571 10.2539 18.3594 10.2539Z" fill="white"/>
<path d="M21.9589 11.8343C21.9934 12.0358 22.0213 12.2399 22.0213 12.4512V18.4082C22.0213 18.6195 21.9934 18.8236 21.9589 19.0251C22.8416 18.7398 23.4862 17.9199 23.4862 16.9434V13.916C23.4862 12.9395 22.8416 12.1196 21.9589 11.8343Z" fill="white"/>
<path d="M12.5 0C6.4418 0 1.51367 4.92812 1.51367 10.9863V11.005C1.95005 10.6747 2.45493 10.4329 3.01206 10.3247C3.35439 5.38335 7.47334 1.46484 12.5 1.46484C17.5267 1.46484 21.6456 5.38335 21.9879 10.3246C22.545 10.4329 23.0499 10.6747 23.4863 11.005V10.9863C23.4863 4.92812 18.5582 0 12.5 0Z" fill="white"/>
</svg>
