<svg width="29" height="29" viewBox="0 0 29 29" fill="none" xmlns="http://www.w3.org/2000/svg">
<path d="M9.66667 3.625C6.33046 3.625 3.625 6.33046 3.625 9.66667V19.3333C3.625 22.6695 6.33046 25.375 9.66667 25.375H19.3333C22.6695 25.375 25.375 22.6695 25.375 19.3333V9.66667C25.375 6.33046 22.6695 3.625 19.3333 3.625H9.66667ZM21.75 6.04167C22.417 6.04167 22.9583 6.583 22.9583 7.25C22.9583 7.917 22.417 8.45833 21.75 8.45833C21.083 8.45833 20.5417 7.917 20.5417 7.25C20.5417 6.583 21.083 6.04167 21.75 6.04167ZM14.5 8.45833C17.8362 8.45833 20.5417 11.1638 20.5417 14.5C20.5417 17.8362 17.8362 20.5417 14.5 20.5417C11.1638 20.5417 8.45833 17.8362 8.45833 14.5C8.45833 11.1638 11.1638 8.45833 14.5 8.45833ZM14.5 10.875C13.5386 10.875 12.6166 11.2569 11.9367 11.9367C11.2569 12.6166 10.875 13.5386 10.875 14.5C10.875 15.4614 11.2569 16.3834 11.9367 17.0633C12.6166 17.7431 13.5386 18.125 14.5 18.125C15.4614 18.125 16.3834 17.7431 17.0633 17.0633C17.7431 16.3834 18.125 15.4614 18.125 14.5C18.125 13.5386 17.7431 12.6166 17.0633 11.9367C16.3834 11.2569 15.4614 10.875 14.5 10.875Z" fill="#F2F3F7"/>
</svg>
