<svg width="24" height="24" viewBox="0 0 24 24" fill="none" xmlns="http://www.w3.org/2000/svg">
<path fill-rule="evenodd" clip-rule="evenodd" d="M9 16C9 14.3431 10.3431 13 12 13C13.6569 13 15 14.3431 15 16C15 17.6569 13.6569 19 12 19C10.3431 19 9 17.6569 9 16ZM12 15C11.4477 15 11 15.4477 11 16C11 16.5523 11.4477 17 12 17C12.5523 17 13 16.5523 13 16C13 15.4477 12.5523 15 12 15Z" fill="#C4C2D9"/>
<path fill-rule="evenodd" clip-rule="evenodd" d="M6 9V6.44444C6 4.95993 6.66446 3.5638 7.8001 2.55434C8.93191 1.54829 10.4442 1 12 1C13.5558 1 15.0681 1.54829 16.1999 2.55434C17.3355 3.5638 18 4.95993 18 6.44444V9H19C20.737 9 22 10.5082 22 12.1818V19.8182C22 21.4918 20.737 23 19 23H5C3.26302 23 2 21.4918 2 19.8182V12.1818C2 10.5082 3.26302 9 5 9H6ZM9.12883 4.04916C9.87239 3.38822 10.9036 3 12 3C13.0964 3 14.1276 3.38822 14.8712 4.04916C15.6109 4.70669 16 5.57148 16 6.44444V9H8V6.44444C8 5.57148 8.38911 4.70669 9.12883 4.04916ZM19 11C19.4722 11 20 11.4454 20 12.1818V19.8182C20 20.5546 19.4722 21 19 21H5C4.52784 21 4 20.5546 4 19.8182V12.1818C4 11.4454 4.52784 11 5 11H19Z" fill="#C4C2D9"/>
</svg>
