<svg width="63" height="30" viewBox="0 0 63 30" fill="none" xmlns="http://www.w3.org/2000/svg">
<path fill-rule="evenodd" clip-rule="evenodd" d="M49.2229 29.5746C53.7201 26.6145 56.9729 22.3598 57.1013 18.1248C57.5096 9.69962 47.5537 6.08803 38.9016 5.26517C26.9342 4.11654 13.9823 6.95021 4.21741 11.1094C11.1674 4.84673 26.335 -0.887996 40.0374 0.114598C53.7399 1.11719 62.3492 6.79855 62.5402 14.7435C62.9254 22.2868 54.6815 29.0662 49.2229 29.5746ZM6.68004 12.1878L0 29.7206H5.8438L12.5041 12.1878H6.68004ZM16.0137 12.1878L9.35666 29.7206H16.3363C17.9728 29.737 19.6073 29.6147 21.2155 29.3555C22.6227 29.0994 23.9622 28.6233 25.1662 27.9513C26.5362 27.1776 27.7327 26.2008 28.6988 25.0671C29.8255 23.7982 30.6875 22.3731 31.247 20.8545C32.08 18.6443 32.2347 16.8919 31.7178 15.5944C31.481 14.9748 31.0797 14.4102 30.5452 13.9445C30.0107 13.4789 29.3574 13.1247 28.6363 12.9096C27.1152 12.435 24.995 12.1794 22.2756 12.1794L16.0137 12.1878ZM20.715 15.2012L16.3363 26.7016H17.324C18.4621 26.7343 19.5948 26.5541 20.6426 26.1736C21.624 25.7667 22.4647 25.1493 23.0822 24.3819C23.8526 23.5393 24.5407 22.3008 25.1629 20.6944C25.7391 19.2116 25.9103 18.063 25.7391 17.2598C25.5679 16.4566 25.1629 15.909 24.5407 15.6141C23.9184 15.3192 22.9768 15.1956 21.6928 15.1956L20.715 15.2012ZM45.5388 23.3315C44.2779 25.6878 42.5758 26.856 40.4457 26.856C39.1288 26.856 38.2936 26.4544 37.9402 25.6512C37.611 24.8284 37.8316 23.3484 38.6448 21.1943C39.5666 18.7819 40.551 17.1587 41.5815 16.319C42.612 15.4793 43.7412 15.058 44.9627 15.058C47.2673 15.058 48.0245 16.3555 47.1685 18.9673L52.5843 18.7117C53.8255 14.1818 51.6658 11.9351 46.1413 11.9351C42.7997 11.9351 39.9749 12.7214 37.6604 14.3278C35.3459 15.9342 33.6767 18.1444 32.587 20.9753C31.4973 23.8061 31.5368 25.9995 32.6298 27.589C33.7228 29.1786 35.9221 29.9986 39.1814 29.9986C41.7258 30.0336 44.2215 29.4023 46.3323 28.19C48.3515 27.0715 49.921 25.4525 50.8295 23.5506L45.5388 23.3315Z" fill="#006285"/>
</svg>
