<svg width="21" height="17" viewBox="0 0 21 17" fill="none" xmlns="http://www.w3.org/2000/svg">
<path d="M3.5127 16.3887H17.6895C19.3857 16.3887 20.3701 15.4043 20.3701 13.5234V3.81152C20.3701 1.93066 19.377 0.946289 17.4785 0.946289H3.30176C1.60547 0.946289 0.621094 1.92188 0.621094 3.81152V13.5234C0.621094 15.4043 1.61426 16.3887 3.5127 16.3887ZM9.50684 8.9707L3.1084 2.64258C3.23145 2.61621 3.37207 2.59863 3.52148 2.59863H17.4697C17.6279 2.59863 17.7686 2.61621 17.9004 2.65137L11.5107 8.9707C11.1416 9.33105 10.834 9.48926 10.5088 9.48926C10.1836 9.48926 9.87598 9.32227 9.50684 8.9707ZM2.26465 3.93457L7.0459 8.63672L2.26465 13.3652V3.93457ZM13.9717 8.63672L18.7266 3.96094V13.3477L13.9717 8.63672ZM3.52148 14.7275C3.36328 14.7275 3.21387 14.71 3.08203 14.6836L8.11816 9.69141L8.59277 10.166C9.23438 10.79 9.84961 11.0537 10.5088 11.0537C11.1592 11.0537 11.7832 10.79 12.416 10.166L12.8994 9.69141L17.9268 14.6748C17.7861 14.71 17.6367 14.7275 17.4697 14.7275H3.52148Z" fill="#006285"/>
</svg>
