<svg width="74" height="71" viewBox="0 0 74 71" fill="none" xmlns="http://www.w3.org/2000/svg">
<path d="M4.86719 69.7188C6.02734 69.7188 7.08203 69.332 8.48828 68.5234L25.5742 59.3125L44.207 69.7539C45.6836 70.5625 47.2305 70.9492 48.7422 70.9492C50.2188 70.9492 51.6602 70.5977 52.9609 69.8242L70.4336 59.9805C72.8594 58.6094 73.9141 56.6758 73.9141 54.0039V6.78906C73.9141 3.80078 72.1211 2.00781 69.168 2.00781C68.0078 2.00781 66.9531 2.46484 65.5117 3.23828L47.793 13.082L29.3711 1.97266C28.0352 1.19922 26.5938 0.8125 25.1172 0.8125C23.6758 0.8125 22.2344 1.16406 20.9688 1.90234L3.60156 11.7812C1.17578 13.1523 0.0859375 15.0156 0.0859375 17.6875V64.9727C0.0859375 67.9609 1.87891 69.7188 4.86719 69.7188ZM22.4102 53.0195L7.96094 60.9648C7.71484 61.0703 7.50391 61.1758 7.32812 61.1758C6.90625 61.1758 6.69531 60.8594 6.69531 60.3672V19.5156C6.69531 18.5312 7.04688 17.8984 7.96094 17.3711L21.25 9.67188C21.6367 9.42578 21.9883 9.25 22.4102 9.03906V53.0195ZM29.0898 53.1953V9.88281C29.4414 10.0586 29.8281 10.2695 30.1797 10.4805L44.9102 19.375V62.0547C44.4531 61.8086 43.9961 61.5625 43.5039 61.2812L29.0898 53.1953ZM51.625 62.5469V18.707L66.0742 10.832C66.25 10.7266 66.4609 10.6562 66.6367 10.6562C67.0586 10.6562 67.3398 10.9727 67.3398 11.4297V52.0703C67.3398 53.0898 66.9883 53.7227 66.0391 54.25L53.2422 61.668C52.7148 61.9844 52.1523 62.3008 51.625 62.5469Z" fill="#006285"/>
</svg>
