<svg viewBox="0 0 177 80" fill="none" xmlns="http://www.w3.org/2000/svg">
<path d="M41.9509 39.7875H147.228C163.56 39.7875 176.8 53.0255 176.8 69.3555V80H71.5231C55.1908 80 41.9509 66.7619 41.9509 50.432V39.7875Z" fill="#006285"/>
<path d="M0 37.422H7.46235V16.1931H7.92442L15.5023 37.422H20.3309L27.9087 16.1931H28.3939V37.422H35.8332V4.0887H26.1991L18.1592 26.7036H17.7202L9.65716 4.0887H0V37.422Z" fill="#006285"/>
<path d="M55.263 38.0226C63.5109 38.0226 68.3625 33.033 68.3625 24.5784V24.5322C68.3625 16.1931 63.3953 11.1111 55.263 11.1111C47.1769 11.1111 42.1634 16.2393 42.1634 24.5322V24.5784C42.1634 33.0099 47.0382 38.0226 55.263 38.0226ZM55.263 31.8087C52.2596 31.8087 50.5499 29.1522 50.5499 24.5784V24.5322C50.5499 20.0739 52.3058 17.325 55.263 17.325C58.2202 17.325 59.9761 20.0739 59.9761 24.5322V24.5784C59.9761 29.1291 58.2664 31.8087 55.263 31.8087Z" fill="#006285"/>
<path d="M86.36 8.29291C91.951 8.29291 95.6244 4.9203 95.6244 0H89.8255C89.7331 2.4024 88.4162 4.0425 86.36 4.0425C84.35 4.0425 83.01 2.4024 82.9176 0H77.1187C77.1187 4.9203 80.7921 8.29291 86.36 8.29291ZM73.9073 37.422H81.9242L90.3106 22.6149H90.8189V37.422H98.8126V11.7117H90.8189L82.4324 26.2416H81.9242V11.7117H73.9073V37.422Z" fill="#006285"/>
<g filter="url(#filter0_i)">
<path d="M71.7827 75.2691H79.4137V45.2691H71.7827V75.2691Z" fill="white"/>
<path d="M88.6333 75.2691H101.234C110.258 75.2691 115.269 69.8221 115.269 59.9885V59.9469C115.269 50.5914 110.175 45.2691 101.234 45.2691H88.6333V75.2691ZM96.2643 69.1361V51.4022H99.8615C104.665 51.4022 107.492 54.5207 107.492 60.0924V60.134C107.492 66.0591 104.81 69.1361 99.8615 69.1361H96.2643Z" fill="white"/>
<path d="M136.174 76.0799C143.868 76.0799 149.191 71.4022 149.69 64.7078V64.3752H142.35L142.308 64.6038C141.788 67.7016 139.48 69.7598 136.195 69.7598C131.995 69.7598 129.437 66.1631 129.437 60.2587V60.2171C129.437 54.3544 131.995 50.7785 136.174 50.7785C139.46 50.7785 141.872 52.9822 142.308 56.1215L142.329 56.3086H149.669V55.9344C149.232 49.3024 143.722 44.4583 136.174 44.4583C127.171 44.4583 121.661 50.4666 121.661 60.2379V60.2795C121.661 70.0508 127.192 76.0799 136.174 76.0799Z" fill="white"/>
</g>
<defs>
<filter id="filter0_i" x="71.7827" y="44.4583" width="77.907" height="35.6216" filterUnits="userSpaceOnUse" color-interpolation-filters="sRGB">
<feFlood flood-opacity="0" result="BackgroundImageFix"/>
<feBlend mode="normal" in="SourceGraphic" in2="BackgroundImageFix" result="shape"/>
<feColorMatrix in="SourceAlpha" type="matrix" values="0 0 0 0 0 0 0 0 0 0 0 0 0 0 0 0 0 0 127 0" result="hardAlpha"/>
<feOffset dy="4"/>
<feGaussianBlur stdDeviation="2"/>
<feComposite in2="hardAlpha" operator="arithmetic" k2="0" k3="0"/>
<feColorMatrix type="matrix" values="0 0 0 0 1 0 0 0 0 1 0 0 0 0 1 0 0 0 1 0"/>
<feBlend mode="normal" in2="shape" result="effect1_innerShadow"/>
</filter>
</defs>
</svg>
