<svg width="24" height="18" viewBox="0 0 24 18" fill="none" xmlns="http://www.w3.org/2000/svg">
<path d="M19.9492 8.53125C22.1992 8.53125 23.6523 7.11328 23.6523 4.73438V4.72266C23.6523 2.35547 22.1758 0.9375 19.9375 0.9375C17.7109 0.9375 16.2344 2.36719 16.2344 4.72266V4.73438C16.2344 7.11328 17.6758 8.53125 19.9492 8.53125ZM0.203125 18H2.80469V5.47266H2.875L11.582 18H13.9961V1.08984H11.3945V13.5938H11.3242L2.62891 1.08984H0.203125V18ZM19.9492 6.97266C18.8594 6.97266 18.1562 6.16406 18.1562 4.73438V4.72266C18.1562 3.31641 18.8711 2.48438 19.9375 2.48438C21.0273 2.48438 21.7305 3.30469 21.7305 4.72266V4.73438C21.7305 6.15234 21.0391 6.97266 19.9492 6.97266ZM16.6094 11.8594H23.2891V10.4297H16.6094V11.8594Z" fill="#006285"/>
</svg>
