<svg width="19" height="19" viewBox="0 0 19 19" fill="none" xmlns="http://www.w3.org/2000/svg">
<path d="M9.49121 18.7422C14.4746 18.7422 18.5879 14.6289 18.5879 9.6543C18.5879 4.67969 14.4658 0.566406 9.48242 0.566406C4.50781 0.566406 0.40332 4.67969 0.40332 9.6543C0.40332 14.6289 4.5166 18.7422 9.49121 18.7422ZM7.1709 7.86133C7.12695 7.52734 6.97754 7.22852 6.74902 7C7.49609 5.11914 8.67383 3.42285 10.2031 2.02539C10.2998 2.03418 10.4053 2.05176 10.5107 2.06055C9.42969 3.9502 8.7793 6.05078 8.6123 8.23047C8.12012 8.14258 7.63672 8.01953 7.1709 7.86133ZM3.16309 5.37402C4.36719 3.61621 6.27441 2.36816 8.46289 2.06055C7.24121 3.39648 6.27441 4.92578 5.62402 6.58691C5.36914 6.60449 5.14062 6.68359 4.94727 6.80664C4.30566 6.40234 3.70801 5.91895 3.16309 5.37402ZM12.3037 5.42676C12.2949 4.50391 12.4092 3.58105 12.6641 2.69336C14.29 3.44922 15.626 4.75879 16.3994 6.37598C15.5469 7.02637 14.5977 7.51855 13.5957 7.86133C13.332 7.54492 12.9453 7.34277 12.5146 7.33398C12.3828 6.70996 12.3125 6.07715 12.3037 5.42676ZM11.0996 5.42676C11.1084 6.24414 11.2051 7.05273 11.3896 7.82617C11.2578 7.97559 11.1523 8.16016 11.0996 8.35352C10.8711 8.37109 10.6514 8.37988 10.4229 8.37988C10.2207 8.37988 10.0098 8.37988 9.80762 8.3623C9.94824 6.49023 10.4668 4.67969 11.3369 3.05371C11.1699 3.81836 11.0908 4.61816 11.0996 5.42676ZM1.83594 9.6543C1.83594 8.52051 2.08203 7.44824 2.53906 6.47266C3.0752 6.98242 3.66406 7.43945 4.28809 7.82617C4.2793 7.89648 4.27051 7.95801 4.27051 8.02832C4.27051 8.50293 4.49902 8.93359 4.85938 9.19727C4.69238 10.0498 4.60449 10.9287 4.5957 11.8076C3.62012 11.333 2.69727 10.7266 1.84473 10.0059C1.83594 9.8916 1.83594 9.76855 1.83594 9.6543ZM17.1553 9.6543C17.1553 10.3486 17.0586 11.0254 16.8828 11.667C16.3906 11.9307 15.8896 12.1592 15.3799 12.3525C14.5889 11.623 13.9385 10.7793 13.4375 9.84766C13.666 9.63672 13.833 9.35547 13.8945 9.03027C14.9492 8.6875 15.9424 8.19531 16.8564 7.55371C17.0498 8.22168 17.1553 8.9248 17.1553 9.6543ZM5.7998 12.335C5.77344 11.3594 5.85254 10.3926 6.02832 9.45215C6.32715 9.39062 6.59961 9.23242 6.80176 9.0127C7.37305 9.19727 7.96191 9.34668 8.56836 9.44336C8.57715 10.5244 8.7002 11.5879 8.92871 12.625C8.7793 12.748 8.65625 12.8975 8.56836 13.0645C7.62793 12.9238 6.69629 12.6777 5.7998 12.335ZM10.4229 9.58398C10.7041 9.58398 10.9854 9.5752 11.2666 9.54883C11.4863 9.8916 11.8467 10.1289 12.2598 10.1992C12.7432 11.1396 13.3584 12.001 14.0967 12.7656C13.1475 13.0205 12.1719 13.1699 11.1963 13.2139C11.0117 12.748 10.5986 12.4053 10.1064 12.3262C9.9043 11.4297 9.79004 10.5068 9.78125 9.56641C9.99219 9.58398 10.2119 9.58398 10.4229 9.58398ZM2.13477 11.7549C2.91699 12.3086 3.76074 12.7744 4.62207 13.1611C4.6748 14.0752 4.81543 14.9805 5.05273 15.8682C3.66406 14.875 2.61816 13.4248 2.13477 11.7549ZM9.49121 17.3184C8.47168 17.3184 7.49609 17.1074 6.59961 16.7383C6.22168 15.7451 5.97559 14.708 5.87012 13.6445C6.72266 13.9346 7.60156 14.1455 8.48047 14.2686C8.68262 14.8047 9.18359 15.1826 9.78125 15.209C10.0713 15.8945 10.4229 16.5625 10.8271 17.1953C10.3965 17.2744 9.94824 17.3184 9.49121 17.3184ZM10.9062 14.7607C11.0029 14.6641 11.082 14.541 11.1436 14.418C12.4971 14.3652 13.833 14.1367 15.1338 13.7148C15.3184 13.8643 15.5029 13.9961 15.6875 14.1279C14.7822 15.376 13.5166 16.3428 12.0488 16.8701C11.6006 16.2021 11.2227 15.499 10.9062 14.7607Z" fill="#006285"/>
</svg>
