<svg width="30" height="29" viewBox="0 0 30 29" fill="none" xmlns="http://www.w3.org/2000/svg">
<path d="M14.6667 6.04175C16.0072 6.04175 17.0975 7.13208 17.0975 8.47257C17.0975 9.80835 16.0072 10.8987 14.6667 10.8987C13.3262 10.8987 12.2359 9.80835 12.2359 8.47257C12.2359 7.13208 13.3262 6.04175 14.6667 6.04175ZM14.6667 14.5095C17.9991 14.5095 20.7036 11.8049 20.7036 8.47257C20.7036 5.14022 17.9991 2.43091 14.6667 2.43091C11.3343 2.43091 8.62503 5.14022 8.62503 8.47257C8.62503 11.8002 11.3343 14.5095 14.6667 14.5095ZM17.0409 19.1257C18.2351 18.8567 19.3867 18.3847 20.4488 17.7144C21.2512 17.2094 21.4919 16.1474 20.9868 15.345C20.4818 14.5426 19.4198 14.2971 18.6174 14.8069C16.2102 16.3173 13.1185 16.3173 10.716 14.8069C9.90888 14.2971 8.84687 14.5426 8.34183 15.345C7.83678 16.1474 8.0775 17.2094 8.88463 17.7144C9.94192 18.3847 11.0983 18.8567 12.2925 19.1257L9.00735 22.4109C8.33711 23.0811 8.33711 24.1715 9.01207 24.8417C9.3472 25.1768 9.78616 25.3468 10.2251 25.3468C10.6641 25.3468 11.1078 25.1768 11.4429 24.8417L14.6667 21.6179L17.8952 24.8417C18.5655 25.512 19.6511 25.512 20.326 24.8417C20.9963 24.1715 20.9963 23.0811 20.326 22.4109L17.0409 19.1257Z" fill="#F2F3F7"/>
</svg>
