<svg width="20" height="20" viewBox="0 0 20 20" fill="none" xmlns="http://www.w3.org/2000/svg">
<path d="M18.1201 13.1963L15.501 11.3682C14.6748 10.7969 13.7168 10.7529 12.9785 11.4912L12.3984 12.0713C12.1523 12.3174 11.8184 12.3438 11.4844 12.1152C11.1416 11.8867 10.2451 11.0957 9.62988 10.4805C9.00586 9.85645 8.37305 9.15332 8.10938 8.74023C7.88965 8.41504 7.91602 8.08105 8.16211 7.83496L8.74219 7.25488C9.48047 6.5166 9.43652 5.55859 8.85645 4.73242L6.99316 2.06934C6.47461 1.31348 5.85059 0.961914 5.19141 0.953125C4.62891 0.944336 4.03125 1.19922 3.45117 1.70898L3.24023 1.89355C2.17676 2.8252 1.74609 3.87988 1.74609 5.47949C1.74609 6.66602 2.08008 7.97559 2.87988 9.60156C3.3457 9.4082 3.84668 9.26758 4.37402 9.20605C3.56543 7.62402 3.21387 6.46387 3.23145 5.41797C3.24902 4.47754 3.58301 3.65137 4.24219 3.07129C4.3125 3.01855 4.36523 2.97461 4.43555 2.92188C4.68164 2.71094 4.94531 2.59668 5.19141 2.59668C5.44629 2.59668 5.6748 2.70215 5.85059 2.96582L7.49414 5.43555C7.70508 5.73438 7.71387 6.07715 7.40625 6.37598L6.70312 7.07031C6.06152 7.70312 6.13184 8.50293 6.66797 9.1709C7.19531 9.83008 8.00391 10.6475 8.84766 11.4912C9.69141 12.335 10.4385 13.0469 11.0625 13.5479C11.7393 14.0928 12.5391 14.1631 13.1631 13.5303L13.8574 12.8271C14.1475 12.5195 14.4902 12.5283 14.7979 12.7305L17.2236 14.3477C17.4961 14.5234 17.5928 14.7432 17.5928 14.998C17.5928 15.2441 17.4785 15.5078 17.2676 15.7627C17.2148 15.8242 17.1709 15.877 17.1182 15.9473C16.5381 16.6152 15.7119 16.9492 14.7627 16.958C13.6289 16.9756 12.3809 16.624 10.7637 15.7012C10.7021 16.2197 10.5439 16.7295 10.3242 17.1953C12.082 18.0918 13.4707 18.4258 14.7627 18.4258C16.3008 18.4258 17.3467 17.9863 18.2959 16.958C18.3574 16.8877 18.4189 16.8174 18.4805 16.7383C18.999 16.1582 19.2539 15.5518 19.2539 14.9893C19.2539 14.3301 18.9023 13.7324 18.1201 13.1963ZM5.0332 19.4805C7.49414 19.4805 9.56836 17.4238 9.56836 14.9453C9.56836 12.4668 7.52051 10.4189 5.0332 10.4189C2.55469 10.4189 0.506836 12.4668 0.506836 14.9453C0.506836 17.4326 2.55469 19.4805 5.0332 19.4805ZM2.16797 14.9541C2.15918 14.585 2.40527 14.3477 2.76562 14.3477H4.43555V12.6865C4.43555 12.3262 4.67285 12.0801 5.0332 12.0801C5.40234 12.0801 5.63965 12.3262 5.63965 12.6865V14.3477H7.30957C7.66113 14.3477 7.90723 14.585 7.90723 14.9541C7.90723 15.3145 7.66113 15.5518 7.30957 15.5518H5.63965V17.2217C5.63965 17.582 5.40234 17.8281 5.0332 17.8281C4.67285 17.8281 4.43555 17.582 4.43555 17.2217V15.5518H2.76562C2.41406 15.5518 2.16797 15.3145 2.16797 14.9541Z" fill="#006285"/>
</svg>
