<svg width="87" height="36" viewBox="0 0 87 36" fill="none" xmlns="http://www.w3.org/2000/svg">
<path d="M0.0117493 28.0938C0.0117493 32.4531 2.57816 35.793 7.07816 35.8281C7.88675 35.8281 9.08206 35.7578 10.6992 35.4766L23.9532 33.543C29.2969 32.8047 30.7032 30.625 30.7032 26.125C30.7032 24.7891 30.7032 23.4531 30.7032 22.1172C30.7383 21.0273 31.2305 20.5352 32.0391 20.3242C37.2071 19.1992 49.793 19.1992 54.961 20.3242C55.7696 20.5352 56.2617 21.0273 56.2969 22.1172C56.2969 23.4531 56.2969 24.7891 56.2969 26.125C56.3321 30.625 57.7032 32.8047 63.0469 33.543L76.3008 35.4766C77.918 35.7578 79.1133 35.8281 79.9219 35.8281C84.4219 35.793 86.9883 32.4531 86.9883 28.0938V25.0703C86.9883 8.33594 68.461 0.00390625 43.5 0.00390625C18.5742 0.00390625 0.0117493 8.33594 0.0117493 25.0703V28.0938ZM6.26956 27.2148V25.3516C6.26956 11.043 24.7266 5.80469 43.5 5.80469C62.2735 5.80469 80.7305 11.043 80.7305 25.3516V27.2148C80.7305 28.7969 79.9571 30.1328 78.3399 30.1328C77.8828 30.1328 77.3907 30.0273 76.5821 29.8867L64.3477 27.6016C63.3282 27.3906 62.5547 26.8633 62.5547 25.3516V20.8516C62.5547 17.0547 61.2188 15.6133 59.25 14.9805C53.4141 13.3633 33.586 13.3633 27.7852 14.9805C25.7813 15.6133 24.4453 17.0547 24.4453 20.8516V25.3516C24.4453 26.8633 23.6719 27.3906 22.6524 27.6016L10.418 29.8867C9.60941 30.0273 9.11722 30.1328 8.66019 30.1328C7.043 30.1328 6.26956 28.7969 6.26956 27.2148Z" fill="#006285"/>
</svg>
