<svg width="19" height="20" viewBox="0 0 19 20" fill="none" xmlns="http://www.w3.org/2000/svg">
<path d="M14.6768 0.766602C14.3779 1.06543 14.3779 1.56641 14.6768 1.86523L17.6299 4.82715C17.9375 5.12598 18.4385 5.12598 18.7373 4.82715C19.0361 4.52832 19.0361 4.03613 18.7373 3.72852L15.7754 0.766602C15.4766 0.467773 14.9756 0.467773 14.6768 0.766602ZM13.0508 19.4258C14.5889 19.4258 15.6348 18.9863 16.584 17.958C16.6455 17.8877 16.707 17.8086 16.7686 17.7383C17.2871 17.1582 17.542 16.5518 17.542 15.9893C17.542 15.3301 17.1904 14.7324 16.4082 14.1963L13.7803 12.3682C12.9541 11.7969 12.0049 11.7529 11.2666 12.4912L10.6162 13.1416C10.3789 13.3701 10.168 13.3877 9.9043 13.2031C9.42969 12.8867 8.5332 12.0957 7.91797 11.4805C7.29395 10.8564 6.66113 10.1533 6.31836 9.61719C6.13379 9.34473 6.14258 9.13379 6.37988 8.90527L7.03027 8.25488C7.76855 7.5166 7.72461 6.55859 7.14453 5.73242L5.28125 3.06934C4.7627 2.31348 4.13867 1.96191 3.47949 1.95312C2.9082 1.94434 2.31934 2.19922 1.73926 2.70898C1.66895 2.77051 1.59863 2.83203 1.52832 2.89355C0.482422 3.85156 0.0341797 4.87988 0.0341797 6.47949C0.0341797 9.07227 1.53711 12.1309 4.46387 15.04C7.37305 17.9316 10.3965 19.4258 13.0508 19.4258ZM13.0508 17.958C10.8096 17.9932 8.02344 16.4023 5.57129 13.9766C3.11914 11.5508 1.48438 8.65918 1.51953 6.41797C1.52832 5.47754 1.8623 4.65137 2.53027 4.07129C2.60059 4.01855 2.65332 3.97461 2.71484 3.92188C2.96094 3.71094 3.2334 3.59668 3.4707 3.59668C3.73438 3.59668 3.9541 3.70215 4.12988 3.96582L5.78223 6.43555C5.99316 6.73438 6.00195 7.07715 5.69434 7.37598L4.99121 8.07031C4.32324 8.7207 4.37598 9.48535 4.80664 10.083C5.28125 10.7422 6.16016 11.7529 6.91602 12.4912C7.71582 13.2822 8.80566 14.2578 9.43848 14.7148C10.0361 15.1367 10.792 15.1982 11.4424 14.5303L12.1367 13.8271C12.4355 13.5195 12.7783 13.5283 13.0859 13.7305L15.5117 15.3477C15.7842 15.5234 15.8809 15.7432 15.8809 15.998C15.8809 16.2441 15.7666 16.5078 15.5557 16.7627C15.5029 16.8242 15.459 16.877 15.4062 16.9473C14.8174 17.6152 13.9912 17.9492 13.0508 17.958ZM13.7891 5.71484C14.2725 6.18066 15.0371 6.18066 15.5205 5.70605C15.9863 5.23145 15.9863 4.45801 15.5205 3.9834C15.0371 3.50879 14.2725 3.50879 13.7891 3.97461C13.3145 4.45801 13.3145 5.22266 13.7891 5.71484ZM10.5811 4.8623C10.2822 5.16113 10.2822 5.65332 10.5811 5.95215L13.543 8.91406C13.8418 9.22168 14.334 9.22168 14.6328 8.91406C14.9404 8.61523 14.9404 8.12305 14.6328 7.82422L11.6709 4.8623C11.3721 4.56348 10.8799 4.56348 10.5811 4.8623ZM9.69336 9.80176C10.1768 10.2764 10.9502 10.2764 11.4248 9.80176C11.9082 9.31836 11.9082 8.54492 11.4248 8.0791C10.9502 7.5957 10.1768 7.5957 9.69336 8.07031C9.21875 8.54492 9.21875 9.31836 9.69336 9.80176Z" fill="#006285"/>
</svg>
