<svg width="21" height="21" viewBox="0 0 21 21" fill="none" xmlns="http://www.w3.org/2000/svg">
<mask id="mask0" mask-type="alpha" maskUnits="userSpaceOnUse" x="0" y="0" width="21" height="21">
<rect width="21" height="21" fill="white"/>
</mask>
<g mask="url(#mask0)">
<path fill-rule="evenodd" clip-rule="evenodd" d="M10.5001 14C8.56709 14 7.00009 12.433 7.00009 10.5C7.00009 8.567 8.56709 7 10.5001 7C12.4331 7 14.0001 8.567 14.0001 10.5C14.0001 12.433 12.4331 14 10.5001 14ZM10.5001 12.25C9.53359 12.25 8.75009 11.4665 8.75009 10.5C8.75009 9.5335 9.53359 8.75 10.5001 8.75C11.4666 8.75 12.2501 9.5335 12.2501 10.5C12.2501 11.4665 11.4666 12.25 10.5001 12.25ZM3.71864 4.74578C3.92424 4.38968 4.35006 4.22477 4.74187 4.34952L6.34922 4.86129C6.5637 4.70357 6.78624 4.55889 7.01554 4.4276C7.23398 4.30198 7.45984 4.1878 7.6923 4.0859L8.05277 2.43802C8.14065 2.03632 8.49637 1.75 8.90756 1.75H12.0927C12.5039 1.75 12.8597 2.03632 12.9475 2.43802L13.308 4.0859C13.5547 4.19403 13.7939 4.31597 14.0247 4.45075C14.2399 4.57584 14.449 4.71279 14.6509 4.86129L16.2583 4.34953C16.6501 4.22478 17.0759 4.38968 17.2815 4.74579L18.8741 7.50423C19.0797 7.86034 19.0096 8.31156 18.7056 8.58851L17.4588 9.72463C17.4874 9.98273 17.5014 10.2413 17.5012 10.499C17.5015 10.7574 17.4875 11.0166 17.4588 11.2754L18.7056 12.4115C19.0096 12.6885 19.0797 13.1397 18.8741 13.4958L17.2815 16.2542C17.0759 16.6103 16.6501 16.7752 16.2583 16.6505L14.6509 16.1387C14.4465 16.289 14.2348 16.4275 14.0168 16.5539C13.7884 16.6868 13.5519 16.8072 13.308 16.9141L12.9475 18.562C12.8597 18.9637 12.5039 19.25 12.0927 19.25H8.90756C8.49637 19.25 8.14065 18.9637 8.05277 18.562L7.6923 16.9141C7.46255 16.8134 7.23924 16.7007 7.02317 16.5768C6.79117 16.4443 6.56608 16.2982 6.34922 16.1387L4.74187 16.6505C4.35006 16.7752 3.92424 16.6103 3.71864 16.2542L2.12605 13.4958C1.92045 13.1397 1.99055 12.6885 2.29449 12.4115L3.54137 11.2754C3.51271 11.017 3.49866 10.7581 3.4989 10.5C3.49866 10.2419 3.51271 9.98305 3.54137 9.72463L2.29449 8.58851C1.99055 8.31156 1.92045 7.86034 2.12605 7.50423L3.71864 4.74578ZM11.7889 5.33073L12.6054 5.68865C12.79 5.76959 12.9692 5.86094 13.1423 5.96199L13.1451 5.96362C13.3064 6.05741 13.463 6.16 13.6142 6.27115L14.3324 6.79926L16.1181 6.23071L17.0064 7.76931L15.6212 9.03149L15.7194 9.91751C15.7408 10.1107 15.7514 10.3044 15.7512 10.4976C15.7514 10.6947 15.7409 10.8888 15.7194 11.0825L15.6212 11.9685L17.0064 13.2307L16.1181 14.7693L14.3324 14.2008L13.6142 14.7289C13.4612 14.8414 13.3026 14.9451 13.1392 15.0398C12.9651 15.1411 12.7879 15.2313 12.6054 15.3113L11.7889 15.6693L11.3885 17.5H9.61184L9.21137 15.6693L8.39492 15.3114C8.22294 15.236 8.05566 15.1515 7.89368 15.0587L7.89082 15.057C7.71687 14.9577 7.54825 14.8482 7.38593 14.7289L6.66773 14.2008L4.88204 14.7693L3.99373 13.2307L5.37895 11.9685L5.2807 11.0825C5.25925 10.8891 5.24871 10.6951 5.2489 10.5016C5.24871 10.3049 5.25925 10.1109 5.2807 9.91751L5.37895 9.03149L3.99373 7.76931L4.88204 6.23071L6.66773 6.79926L7.38593 6.27115C7.54647 6.1531 7.71318 6.04471 7.8851 5.94627L7.88795 5.94463C8.05172 5.85045 8.22091 5.76493 8.39492 5.68865L9.21137 5.33073L9.61184 3.5H11.3885L11.7889 5.33073Z" fill="#006285"/>
</g>
</svg>
