<svg width="21" height="21" viewBox="0 0 21 21" fill="none" xmlns="http://www.w3.org/2000/svg">
<mask id="mask0" mask-type="alpha" maskUnits="userSpaceOnUse" x="0" y="0" width="21" height="21">
<rect width="21" height="21" fill="white"/>
</mask>
<g mask="url(#mask0)">
<path fill-rule="evenodd" clip-rule="evenodd" d="M8.3125 8.3125C9.69982 8.3125 10.8717 7.39003 11.2482 6.125H19.25V4.375H11.2482C10.8717 3.10997 9.69982 2.1875 8.3125 2.1875C6.62113 2.1875 5.25 3.55863 5.25 5.25C5.25 6.94137 6.62113 8.3125 8.3125 8.3125C8.3125 8.3125 9.69982 8.3125 8.3125 8.3125ZM9.625 5.25C9.625 5.97487 9.03737 6.5625 8.3125 6.5625C7.58763 6.5625 7 5.97487 7 5.25C7 4.52513 7.58763 3.9375 8.3125 3.9375C9.03737 3.9375 9.625 4.52513 9.625 5.25C9.625 5.25 9.625 5.97487 9.625 5.25ZM14.4375 13.5625C15.8248 13.5625 16.9967 12.64 17.3732 11.375H19.25V9.625H17.3732C16.9967 8.35997 15.8248 7.4375 14.4375 7.4375C12.7461 7.4375 11.375 8.80863 11.375 10.5C11.375 12.1914 12.7461 13.5625 14.4375 13.5625C14.4375 13.5625 15.8248 13.5625 14.4375 13.5625ZM14.4375 11.8125C15.1624 11.8125 15.75 11.2249 15.75 10.5C15.75 9.77513 15.1624 9.1875 14.4375 9.1875C13.7126 9.1875 13.125 9.77513 13.125 10.5C13.125 11.2249 13.7126 11.8125 14.4375 11.8125C14.4375 11.8125 15.1624 11.8125 14.4375 11.8125ZM6.5625 18.8125C8.25387 18.8125 9.625 17.4414 9.625 15.75C9.625 14.0586 8.25387 12.6875 6.5625 12.6875C5.17518 12.6875 4.00331 13.61 3.62682 14.875H1.75V16.625H3.62682C4.00331 17.89 5.17518 18.8125 6.5625 18.8125C6.5625 18.8125 8.25387 18.8125 6.5625 18.8125ZM6.5625 17.0625C7.28737 17.0625 7.875 16.4749 7.875 15.75C7.875 15.0251 7.28737 14.4375 6.5625 14.4375C5.83763 14.4375 5.25 15.0251 5.25 15.75C5.25 16.4749 5.83763 17.0625 6.5625 17.0625C6.5625 17.0625 7.28737 17.0625 6.5625 17.0625ZM19.25 14.875V16.625H10.5V14.875H19.25ZM1.75 9.625V11.375H10.5V9.625H1.75ZM1.75 4.375V6.125H4.375V4.375H1.75Z" fill="#3A7A92"/>
</g>
</svg>
