<svg width="30" height="29" viewBox="0 0 30 29" fill="none" xmlns="http://www.w3.org/2000/svg">
<path d="M25.1992 3.60623C24.8501 3.62142 24.5296 3.72184 24.2481 3.83279C23.9881 3.93521 23.0542 4.32772 21.5671 4.95144C20.0801 5.57517 18.1096 6.40214 16.0093 7.28551C11.8086 9.05224 7.08812 11.0396 4.66935 12.0575C4.58629 12.0921 4.24896 12.1954 3.87638 12.4799C3.50295 12.7652 3.08813 13.3842 3.08813 14.0611C3.08813 14.6073 3.36075 15.1634 3.68994 15.4819C4.01913 15.8003 4.35276 15.9492 4.63159 16.0601V16.0577C5.57413 16.4332 8.38884 17.5595 9.059 17.8277C9.29672 18.5401 10.3172 21.5897 10.56 22.3566H10.5576C10.7292 22.8994 10.8965 23.2532 11.1287 23.5484C11.2449 23.6961 11.3835 23.8299 11.5535 23.9355C11.6188 23.976 11.691 24.0075 11.7636 24.037C11.7737 24.0413 11.7841 24.0423 11.7943 24.0464L11.766 24.0393C11.787 24.0478 11.8059 24.0603 11.8273 24.0677C11.8622 24.0797 11.8865 24.0793 11.9335 24.0889C12.0991 24.1398 12.2643 24.1739 12.4173 24.1739C13.0742 24.1739 13.477 23.8175 13.477 23.8175L13.5029 23.7986L16.3397 21.3985L19.8136 24.6128C19.8771 24.7024 20.3742 25.3751 21.5247 25.3751C22.2111 25.3751 22.7539 25.0353 23.1012 24.6789C23.4484 24.3225 23.6647 23.9578 23.762 23.4635L23.7643 23.4611C23.8419 23.0622 27.1675 6.36274 27.1675 6.36274L27.1604 6.39106C27.2639 5.92906 27.2945 5.48227 27.1722 5.02696C27.0499 4.57166 26.7199 4.12732 26.3226 3.89415C25.9252 3.66098 25.5484 3.59104 25.1992 3.60623ZM24.7225 6.25182C24.5911 6.9116 21.612 21.878 21.4279 22.8168L16.4105 18.1747L13.0191 21.0421L13.9584 17.3699C13.9584 17.3699 20.4382 10.8109 20.8284 10.4291C21.1426 10.1234 21.2084 10.0162 21.2084 9.90986C21.2084 9.76848 21.1356 9.66678 20.9677 9.66678C20.8166 9.66678 20.6115 9.81151 20.5028 9.87918C19.1209 10.7407 13.235 14.0949 10.3405 15.7415C10.1663 15.6716 7.5511 14.6215 6.14201 14.0588C8.64841 13.0039 12.9448 11.1963 16.9462 9.51337C19.0462 8.63016 21.0161 7.80244 22.5017 7.17931C23.7558 6.65331 24.4099 6.38096 24.7225 6.25182ZM21.3925 22.9891H21.3949C21.3948 22.9894 21.3926 22.9958 21.3925 22.9962C21.394 22.9884 21.3913 22.9952 21.3925 22.9891Z" fill="#F2F3F7"/>
</svg>
