<svg width="91" height="73" viewBox="0 0 91 73" fill="none" xmlns="http://www.w3.org/2000/svg">
<path d="M10.4844 60.5234H80.4805C86.8789 60.5234 90.2188 57.2891 90.2188 50.7852V10.2148C90.2188 3.71094 86.8789 0.476562 80.4805 0.476562H10.4844C4.08594 0.476562 0.746094 3.71094 0.746094 10.2148V50.7852C0.746094 57.2891 4.08594 60.5234 10.4844 60.5234ZM10.9414 53.7031C8.62109 53.7031 7.56641 52.7539 7.56641 50.3633V10.6367C7.56641 8.24609 8.62109 7.29688 10.9414 7.29688H80.0234C82.3438 7.29688 83.3984 8.24609 83.3984 10.6367V50.3633C83.3984 52.7539 82.3438 53.7031 80.0234 53.7031H10.9414ZM27.5 72.8281H63.4648C65.2227 72.8281 66.6641 71.3867 66.6641 69.6289C66.6641 67.8711 65.2227 66.3945 63.4648 66.3945H27.5C25.7422 66.3945 24.3008 67.8711 24.3008 69.6289C24.3008 71.3867 25.7422 72.8281 27.5 72.8281Z" fill="#006285"/>
</svg>
