<svg width="22" height="22" viewBox="0 0 22 22" fill="none" xmlns="http://www.w3.org/2000/svg">
<mask id="mask0" mask-type="alpha" maskUnits="userSpaceOnUse" x="0" y="0" width="22" height="22">
<rect width="22" height="22" fill="white"/>
</mask>
<g mask="url(#mask0)">
<path fill-rule="evenodd" clip-rule="evenodd" d="M6.41667 6.41658C6.41667 8.94383 8.47275 10.9999 11 10.9999C13.5273 10.9999 15.5833 8.94383 15.5833 6.41658C15.5833 3.88934 13.5273 1.83325 11 1.83325C8.47275 1.83325 6.41667 3.88934 6.41667 6.41658ZM8.25 6.41658C8.25 4.90042 9.48383 3.66659 11 3.66659C12.5162 3.66659 13.75 4.90042 13.75 6.41658C13.75 7.93275 12.5162 9.16658 11 9.16658C9.48383 9.16658 8.25 7.93275 8.25 6.41658ZM19.25 18.3333C19.25 14.7958 16.3708 11.9166 12.8333 11.9166H9.16667C5.62833 11.9166 2.75 14.7958 2.75 18.3333V19.2499H4.58333V18.3333C4.58333 15.806 6.63942 13.7499 9.16667 13.7499H12.8333C15.3606 13.7499 17.4167 15.806 17.4167 18.3333V19.2499H19.25V18.3333Z" fill="#F2F3F7"/>
</g>
</svg>
