<svg width="30" height="29" viewBox="0 0 30 29" fill="none" xmlns="http://www.w3.org/2000/svg">
<path d="M14.8333 2.41675C8.15971 2.41675 2.75 7.82646 2.75 14.5001C2.75 21.1737 8.15971 26.5834 14.8333 26.5834C21.507 26.5834 26.9167 21.1737 26.9167 14.5001C26.9167 7.82646 21.507 2.41675 14.8333 2.41675ZM21.4973 19.3334H19.9156C19.3162 19.3334 19.1265 18.7401 18.0813 17.5209C17.1751 16.4636 16.7063 16.3126 16.4755 16.3126C16.1516 16.3126 16.0417 16.3923 16.0417 16.8769V18.6725C16.0417 19.0748 15.9377 19.3334 14.924 19.3334C13.2504 19.3334 11.3594 18.2 9.92508 16.2365C7.94583 13.5286 7.58333 11.1735 7.58333 10.7385C7.58333 10.4969 7.65946 10.2709 8.12104 10.2709H9.71725C10.1172 10.2709 10.2707 10.4485 10.4241 10.9162C11.1334 13.2917 12.1907 15.1042 12.7284 15.1042C12.9278 15.1042 13.0208 15.0076 13.0208 14.4759V12.2864C12.9592 11.1578 12.4167 11.0612 12.4167 10.6576C12.4167 10.463 12.5448 10.2709 12.7913 10.2709H15.5994C15.9377 10.2709 16.0417 10.4642 16.0417 10.8835V14.0167C16.0417 14.3708 16.3123 14.5001 16.4187 14.5001C16.618 14.5001 16.8053 14.5097 17.1739 14.1219C18.3097 12.783 19.2957 10.7542 19.2957 10.7542C19.4045 10.5126 19.5881 10.2709 19.9881 10.2709H21.5698C21.9238 10.2709 22.0737 10.4292 22.0833 10.6491C22.087 10.7252 22.0737 10.8098 22.0459 10.9005C21.8465 11.8671 19.802 14.7381 19.8177 14.7381C19.7307 14.8867 19.6727 14.9931 19.6667 15.1055C19.6606 15.2118 19.7041 15.323 19.8177 15.48C19.9857 15.7217 20.353 16.1664 20.724 16.6159C21.3946 17.4267 21.9323 18.2773 22.0495 18.6253C22.0749 18.7196 22.0858 18.8054 22.0833 18.8815C22.0749 19.1787 21.8634 19.3334 21.4973 19.3334Z" fill="#F2F3F7"/>
</svg>
