<svg width="85" height="84" viewBox="0 0 85 84" fill="none" xmlns="http://www.w3.org/2000/svg">
<path d="M6.39456 78.2695C12.6524 84.457 21.125 84.4219 27.1367 78.3398C32.5508 72.8906 34.0977 66.2109 42.9219 54.5742L57.0547 68.6367L57.5117 71.7305C57.7227 73.1016 58.6016 74.332 59.7266 75.1055L70.8711 82.5938C72.1367 83.4375 73.4024 83.4375 74.3164 82.5234L81.0313 75.8086C81.9102 74.8945 81.8399 73.5938 81.0313 72.3633L73.6133 61.2539C72.8047 60.0586 71.5742 59.25 70.2032 59.0391L67.1446 58.582L52.2032 43.6406C53.5039 42.2695 54.875 40.8281 56.3867 39.3164C63.9453 42.6562 72.9453 41.3906 78.9219 35.3789C85.4961 28.8398 86.5157 18.4336 81.3828 10.207L77.375 14.2148V14.25L71.7149 19.8398C70.836 20.7539 69.7461 20.7891 68.8321 19.8398L64.8946 15.9023C63.9102 14.918 63.875 13.8281 64.7539 12.9492L70.3789 7.32422L74.4219 3.31641C66.2305 -1.81641 55.8594 -0.832031 49.2852 5.74219C44.1172 10.9453 42.4297 18.3281 44.2227 25.1133L24.9571 5.77734C19.7539 0.574219 14.1641 0.539062 9.06644 5.63672L4.10941 10.6289C-0.988251 15.6914 -0.953094 21.2812 4.25003 26.4844L23.9024 46.1367C15.8867 51.3398 10.7539 53.1328 6.32425 57.4922C0.242218 63.5391 0.207062 71.9766 6.39456 78.2695ZM60.6407 18.9609L65.7383 24.0234C68.375 26.6602 71.75 26.7305 74.2461 24.2344L78.9922 19.4531C79.5899 23.8828 78.2188 28.3125 75.0196 31.5117C69.2891 37.2422 59.7969 36.9609 53.7149 30.9492C47.668 24.9023 47.4219 15.3398 53.1875 9.64453C56.3516 6.48047 60.7813 5.10938 65.1758 5.67188L60.4297 10.3828C57.8282 12.9844 57.9336 16.3242 60.6407 18.9609ZM8.01175 22.1602C5.55081 19.6992 5.58597 17.2383 7.97659 14.8125L13.25 9.46875C15.6758 7.04297 18.1719 7.07812 20.6328 9.53906L42.3242 31.2305C37.0508 36.2578 32.5157 39.9844 28.5782 42.8672L8.01175 22.1602ZM29.4571 28.8047C30.0547 29.4727 31.1446 29.4023 31.7071 28.8398C32.375 28.1719 32.375 27.1523 31.7422 26.5195L18.9453 13.7578C18.3125 13.125 17.3282 13.1602 16.7305 13.7578C16.0977 14.3906 16.0977 15.375 16.7305 16.0078L29.4571 28.8047ZM24.9922 33.2344C25.625 33.9023 26.6446 33.8672 27.2774 33.2344C27.875 32.6367 27.9102 31.6523 27.2774 31.0195L14.4805 18.2227C13.918 17.625 12.8633 17.625 12.2305 18.2227C11.5977 18.8555 11.5625 19.9102 12.1953 20.5078L24.9922 33.2344ZM49.8125 34.8164C50.4453 35.4141 51.0782 36.0117 51.7461 36.5039C28.6485 60.2695 31.0391 66.2109 23.0235 74.2617C19.3672 77.9531 14.375 78.0938 10.4727 74.2266C6.57034 70.2539 6.74612 65.2969 10.4024 61.6406C18.4532 53.625 24.3594 56.0156 48.125 32.918C48.6524 33.5859 49.2149 34.2188 49.8125 34.8164ZM63.4532 70.1484L62.7149 66.2109L46.543 50.0391C47.1055 49.3359 47.7032 48.668 48.336 47.9297L64.6836 64.2773L68.6211 64.9453L75.0899 73.5234L71.9961 76.6172L63.4532 70.1484ZM16.6602 72.2578C18.9453 72.2578 20.8086 70.3945 20.8086 68.0742C20.8086 65.7891 18.9453 63.9258 16.6602 63.9258C14.375 63.9258 12.4766 65.7891 12.4766 68.0742C12.4766 70.3945 14.375 72.2578 16.6602 72.2578Z" fill="#006285"/>
</svg>
