<svg width="13" height="11" viewBox="0 0 13 11" fill="none" xmlns="http://www.w3.org/2000/svg">
<path d="M12.0042 4.74979H11.345C11.0672 2.36262 8.99548 0.446289 6.50002 0.446289C5.12045 0.446289 3.86801 1.04897 3.00166 1.99065C2.77094 2.21666 2.78036 2.518 2.9687 2.69221C3.16174 2.87113 3.43954 2.87113 3.67496 2.65454C4.37652 1.89648 5.38412 1.42093 6.50002 1.42093C8.48697 1.42093 10.0925 2.87584 10.3609 4.74979H9.64054C9.27799 4.74979 9.17911 5.01817 9.39099 5.31009L10.5163 6.90154C10.6905 7.13696 10.9542 7.14167 11.1237 6.90154L12.2537 5.3148C12.4656 5.01817 12.3714 4.74979 12.0042 4.74979ZM0.995867 5.88452H1.65976C1.93755 8.27169 4.00926 10.188 6.50002 10.188C7.889 10.188 9.14145 9.58064 10.0078 8.63895C10.2338 8.41295 10.2244 8.11161 10.036 7.9374C9.843 7.75848 9.56991 7.75848 9.32978 7.97977C8.63764 8.73783 7.63004 9.21338 6.50002 9.21338C4.51777 9.21338 2.9122 7.75848 2.64382 5.88452H3.3595C3.71734 5.88452 3.82092 5.61614 3.60904 5.32422L2.47902 3.73277C2.30952 3.49735 2.04585 3.49264 1.87634 3.73277L0.746321 5.31951C0.529733 5.61614 0.62861 5.88452 0.995867 5.88452Z" fill="#7C7B8A"/>
</svg>
