<svg id="Слой_1" data-name="Слой 1" xmlns="http://www.w3.org/2000/svg" xmlns:xlink="http://www.w3.org/1999/xlink" viewBox="0 0 50 25"><defs><style>.cls-1{fill:url(#Безымянный_градиент_2);}.cls-2{fill:url(#Безымянный_градиент_2-2);}.cls-3{fill:url(#Безымянный_градиент_2-3);}.cls-4{fill:url(#Безымянный_градиент_2-4);}.cls-5{fill:url(#Безымянный_градиент_2-5);}.cls-6{fill:url(#Безымянный_градиент_2-6);}.cls-7{fill:url(#Безымянный_градиент_2-7);}.cls-8{fill:none;}.cls-9{clip-path:url(#clip-path);}.cls-10{mask:url(#mask);}.cls-11,.cls-17{fill:#a4b3de;}.cls-12{mask:url(#mask-2);}.cls-13{fill:#e1e4f6;}.cls-13,.cls-14,.cls-15,.cls-16,.cls-17,.cls-18,.cls-19,.cls-20,.cls-21,.cls-22,.cls-23,.cls-25,.cls-27,.cls-29{fill-rule:evenodd;}.cls-14{fill:#4759a8;}.cls-15{fill:#b2bee6;}.cls-16,.cls-33{fill:#446ad1;}.cls-18{fill:#b9c2e0;}.cls-19{fill:#3d65e8;}.cls-20{fill:#c9d0ee;}.cls-21{fill:#eaecf9;}.cls-22{fill:#d7def4;}.cls-23{fill:#fff;}.cls-24{mask:url(#mask-3);}.cls-25{fill:#465bab;}.cls-26{mask:url(#mask-4);}.cls-27{fill:#4573e7;}.cls-28{mask:url(#mask-5);}.cls-29{fill:#bad9ee;}.cls-30{fill:#676767;}.cls-31{fill:#7f807f;}.cls-32{mask:url(#mask-6);}.cls-34{mask:url(#mask-7);}</style><linearGradient id="Безымянный_градиент_2" x1="21.61" y1="82.57" x2="1.01" y2="89.09" gradientTransform="translate(0 -74.92)" gradientUnits="userSpaceOnUse"><stop offset="0" stop-color="#fff"/><stop offset="1"/></linearGradient><linearGradient id="Безымянный_градиент_2-2" x1="-348.41" y1="34.15" x2="-327.71" y2="43.2" gradientTransform="translate(377.63 -22.04)" xlink:href="#Безымянный_градиент_2"/><linearGradient id="Безымянный_градиент_2-3" x1="-172.37" y1="22.56" x2="-169.24" y2="20.18" gradientTransform="translate(203.34 -14.89)" xlink:href="#Безымянный_градиент_2"/><linearGradient id="Безымянный_градиент_2-4" x1="-180.42" y1="68.86" x2="-175.8" y2="68.54" gradientTransform="translate(206.75 -57.84)" xlink:href="#Безымянный_градиент_2"/><linearGradient id="Безымянный_градиент_2-5" x1="-207.43" y1="93.98" x2="-207.18" y2="106.57" gradientTransform="translate(232.21 -97.42)" xlink:href="#Безымянный_градиент_2"/><linearGradient id="Безымянный_градиент_2-6" x1="-359.99" y1="34.82" x2="-350.32" y2="36.78" gradientTransform="translate(389.74 -20)" xlink:href="#Безымянный_градиент_2"/><linearGradient id="Безымянный_градиент_2-7" x1="16.26" y1="73.13" x2="-1.35" y2="77.86" gradientTransform="translate(6.97 -64.49)" xlink:href="#Безымянный_градиент_2"/><clipPath id="clip-path"><rect id="SVGID" class="cls-8" x="0.04" y="0.77" width="50" height="23.8"/></clipPath><mask id="mask" x="0.12" y="3.69" width="20.4" height="15.08" maskUnits="userSpaceOnUse"><rect class="cls-1" x="0.12" y="3.69" width="20.4" height="15.08"/></mask><mask id="mask-2" x="28.98" y="9.97" width="20.05" height="12.85" maskUnits="userSpaceOnUse"><rect class="cls-2" x="28.98" y="9.97" width="20.05" height="12.85"/></mask><mask id="mask-3" x="15.66" y="1.19" width="18.52" height="22.17" maskUnits="userSpaceOnUse"><rect class="cls-3" x="15.66" y="1.19" width="18.52" height="22.17"/></mask><mask id="mask-4" x="15.92" y="1.95" width="21.22" height="18.13" maskUnits="userSpaceOnUse"><rect class="cls-4" x="15.92" y="1.95" width="21.22" height="18.13"/></mask><mask id="mask-5" x="17.87" y="3.67" width="14.38" height="13.38" maskUnits="userSpaceOnUse"><rect class="cls-5" x="17.87" y="3.67" width="14.38" height="13.38"/></mask><mask id="mask-6" x="29.91" y="10.81" width="20.05" height="12.16" maskUnits="userSpaceOnUse"><rect class="cls-6" x="29.91" y="10.81" width="20.05" height="12.16"/></mask><mask id="mask-7" x="0.65" y="4.48" width="19.97" height="15.08" maskUnits="userSpaceOnUse"><rect class="cls-7" x="0.65" y="4.48" width="19.97" height="15.08"/></mask></defs><title>extra</title><g class="cls-9"><g class="cls-10"><path class="cls-11" d="M10.58,17.64l3.86-4.47L11.15,8.68l-.51-.87L12.37,8l3,4.13,3-3.43L20,8.93l.47.76-4.3,3.64,3.87,5.44-1.74-.21-3-4.2-3.05,3.48-1.15.64ZM.12,16.4V3.69L9.46,4.8l.51.84-.51.62L1.59,5.32V9.05l4.76.57.51.84-.51.62-4.76-.57v4.6l8.36,1,.48.85-.48.62L.67,17.25Z"/></g><g class="cls-12"><path class="cls-11" d="M38.75,20.92l4.67-9.28.91.11.93.86L49,22.13l-.55.68-1-.86-1.19-2.64-4.85-.57L40.27,21.1l-.55.66Zm3.33-3.41,3.59.43-1.78-4ZM30.42,15.65V20L30,20.6l-1-.81V10l6.32.74c1,.12,3.24,1.31,3.46,2.44.05.22-.46.41-.46.65a2.48,2.48,0,0,1-.63,1.74,2.32,2.32,0,0,1-1.64.75l2.56,4.61-.63.71-.93-.9-2.61-4.59Zm0-1.44,4.88.58a1.56,1.56,0,0,0,1.13-.22,1.11,1.11,0,0,0,.39-.94,1.37,1.37,0,0,0-.39-1,1.87,1.87,0,0,0-1.13-.48l-4.88-.57Z"/></g><polygon class="cls-13" points="13.4 0.85 14.12 0.93 14.12 1.67 13.4 1.58 13.4 0.85"/><polygon class="cls-13" points="22.43 23.29 22.37 22.57 23.09 22.41 23.15 23.13 22.43 23.29"/><polygon class="cls-14" points="37.52 9.62 36.8 9.56 36.8 8.83 37.52 8.88 37.52 9.62"/><polygon class="cls-15" points="15.46 3.42 16.18 3.5 16.2 4.24 15.48 4.15 15.46 3.42"/><polygon class="cls-15" points="24.55 20.7 24.49 19.98 25.21 19.8 25.27 20.52 24.55 20.7"/><polygon class="cls-16" points="35.46 7.14 34.74 7.09 34.72 6.36 35.44 6.41 35.46 7.14"/><polygon class="cls-17" points="15.29 1.58 16.01 1.67 16.02 2.26 16.02 2.26 16.03 2.99 15.31 2.91 15.3 2.32 15.3 2.32 15.29 1.58"/><polygon class="cls-17" points="22.78 21.29 22.72 20.56 23.3 20.42 23.3 20.42 24.02 20.24 24.08 20.96 23.5 21.11 23.5 21.11 22.78 21.29"/><polygon class="cls-16" points="35.6 8.97 34.88 8.92 34.88 8.33 34.88 8.33 34.89 7.59 35.6 7.65 35.6 8.24 35.6 8.24 35.6 8.97"/><polygon class="cls-13" points="13.14 3.93 13.86 4.01 13.86 4.75 13.14 4.66 13.14 3.93"/><polygon class="cls-13" points="25.5 22.85 25.44 22.13 26.16 21.96 26.22 22.68 25.5 22.85"/><polygon class="cls-14" points="34.81 5.64 34.09 5.55 34.09 4.82 34.81 4.91 34.81 5.64"/><polygon class="cls-18" points="14.05 3.94 15.24 4.08 15.24 4.81 14.05 4.67 14.05 3.94"/><polygon class="cls-18" points="25.33 21.96 25.23 20.76 25.95 20.59 26.05 21.79 25.33 21.96"/><polygon class="cls-19" points="36.87 6.56 35.67 6.48 35.67 5.74 36.87 5.83 36.87 6.56"/><polygon class="cls-15" points="13.88 2.04 14.6 2.13 14.6 2.86 13.91 2.78 13.91 3.42 13.19 3.34 13.19 2.6 13.88 2.68 13.88 2.04"/><polygon class="cls-20" points="23.5 22.56 23.45 21.84 24.17 21.67 24.22 22.36 24.85 22.21 24.91 22.93 24.19 23.1 24.13 22.41 23.5 22.56"/><polygon class="cls-14" points="37.04 8.45 36.33 8.4 36.33 7.66 37.01 7.71 37.01 7.07 37.73 7.12 37.73 7.85 37.04 7.8 37.04 8.45"/><polygon class="cls-20" points="14.08 3.3 14.79 3.38 14.79 4.12 14.11 4.04 14.11 4.68 13.39 4.59 13.39 3.86 14.08 3.94 14.08 3.3"/><polygon class="cls-20" points="24.7 22.08 24.64 21.36 25.36 21.19 25.42 21.87 26.05 21.73 26.1 22.45 25.38 22.61 25.33 21.93 24.7 22.08"/><polygon class="cls-16" points="36.84 7.2 36.12 7.15 36.12 6.41 36.81 6.46 36.81 5.82 37.53 5.87 37.53 6.6 36.84 6.56 36.84 7.2"/><polygon class="cls-17" points="17.21 1.82 17.93 1.88 17.93 2.62 17.25 2.56 17.25 3.2 16.53 3.15 16.53 2.41 17.21 2.47 17.21 1.82"/><polygon class="cls-20" points="22.68 19.35 22.63 18.63 23.35 18.46 23.4 19.15 24.03 19 24.09 19.72 23.37 19.89 23.31 19.2 22.68 19.35"/><polygon class="cls-16" points="33.71 8.78 32.99 8.73 32.99 8 33.67 8.04 33.67 7.4 34.39 7.45 34.39 8.19 33.71 8.14 33.71 8.78"/><polygon class="cls-21" points="12.07 1.23 12.79 1.31 12.79 2.05 12.07 1.96 12.07 1.23"/><polygon class="cls-21" points="23.06 24.5 23 23.78 23.72 23.61 23.78 24.33 23.06 24.5"/><polygon class="cls-14" points="38.84 9.17 38.13 9.12 38.13 8.39 38.84 8.44 38.84 9.17"/><polygon class="cls-21" points="11.58 3.76 12.3 3.84 12.3 4.58 11.58 4.49 11.58 3.76"/><polygon class="cls-21" points="25.64 24.41 25.58 23.69 26.3 23.52 26.36 24.24 25.64 24.41"/><polygon class="cls-14" points="39.34 6.62 38.62 6.57 38.62 5.83 39.34 5.88 39.34 6.62"/><polygon class="cls-22" points="12.63 4.93 13.35 5.02 13.35 5.75 12.63 5.67 12.63 4.93"/><polygon class="cls-22" points="26.58 23.12 26.53 22.4 27.25 22.23 27.3 22.95 26.58 23.12"/><polygon class="cls-14" points="38.29 5.5 37.58 5.45 37.58 4.71 38.29 4.76 38.29 5.5"/><polygon class="cls-15" points="14.89 5.33 15.62 5.41 15.62 6.14 14.89 6.06 14.89 5.33"/><polygon class="cls-15" points="26.53 20.82 26.47 20.1 27.19 19.93 27.25 20.65 26.53 20.82"/><polygon class="cls-16" points="36.02 5.21 35.3 5.16 35.3 4.43 36.02 4.48 36.02 5.21"/><path class="cls-16" d="M18.88,5.12,18.22,5c0,.4,0,.3,0,.7l.66.1c0-.4,0-.3,0-.7m9-1.83s-9.27-1.24-9.28-1.23V2.7l-.68-.1v.56l-.48-.05v.73l-.62-.09v.64l-.68-.1V5s1.27.22,1.27.23v.53l-.56-.08v.73c1.05.17,1.74.29,2.95.47V6.21l.71.09V7s5.05.73,5.1.75ZM18.19,4l-.67-.09v.61l.67.1Z"/><path class="cls-16" d="M25.66,17v.67l.69-.15v-.67l-.69.15M22.08,6.8S22.69,18,22.7,18l.63-.14v.69l.55-.13,0,.48.72-.17v.62l.63-.14v.69l.66-.15s0-1.3,0-1.3l.53-.11v.57l.45-.13c0-.11.24-3.1.27-3l-.62.13s0-.71,0-.72l.66-.14s.46-7.23.47-7.28Zm2.54,11.11s0,.45,0,.67l.6-.14v-.67Z"/><path class="cls-16" d="M32,5.5l.66.09c0-.4,0-.3,0-.7l-.66-.09c0,.4,0,.3,0,.7m-8.92,2,9.23,1.11V7.92L33,8V7.45l.48,0V6.76l.62.09V6.21l.68.1V5.63l-1.27-.21V4.88L34.1,5V4.23l-3-.45v.63a5.94,5.94,0,0,1-.71-.08V3.66S25.39,3,25.34,3Zm9.61-.78s.45,0,.67.08V6.14L32.73,6Z"/><polygon class="cls-23" points="18.64 2.8 19.36 2.94 19.35 3.68 18.64 3.54 18.64 2.8"/><polygon class="cls-23" points="23.42 17.73 23.45 16.99 24.17 16.82 24.14 17.56 23.42 17.73"/><polygon class="cls-23" points="32.28 7.82 31.56 7.75 31.57 7.01 32.28 7.08 32.28 7.82"/><g class="cls-24"><polygon class="cls-25" points="25.69 23.36 26.47 7.83 23.24 7.68 23.29 7.59 15.66 1.19 33.37 3.25 34.18 8.81 27.59 7.87 25.69 23.36"/></g><g class="cls-26"><polygon class="cls-27" points="22.57 20.08 22.02 7.29 21.39 6.66 15.92 1.95 27.16 3.6 37.14 9.76 24.96 7.81 22.57 20.08"/></g><g class="cls-28"><path class="cls-29" d="M27.46,8l-5,9.07-.4-9.73L17.87,3.67c-.15,0,14.43,4.7,14.38,4.62S27.47,8,27.46,8"/></g><path class="cls-30" d="M39.68,21.77l4.67-9.27.9.1L50,23l-1.54-.19-1.19-2.64-4.85-.57L41.2,22ZM43,18.37l3.59.42-1.79-4ZM31.34,16.49v4.29l-1.43-.17v-9.8l6.31.75a3.58,3.58,0,0,1,2.21,1,2.91,2.91,0,0,1,.79,2.11,2.48,2.48,0,0,1-.63,1.74,2.26,2.26,0,0,1-1.64.74l2.56,4.62L38,21.56,35.34,17Zm0-1.43,4.88.57a1.53,1.53,0,0,0,1.14-.21,1.11,1.11,0,0,0,.39-.94,1.37,1.37,0,0,0-.39-1A1.88,1.88,0,0,0,36.22,13l-4.88-.58Z"/><path class="cls-31" d="M11.09,18.46,15,14l-3.8-5.34,1.73.19,3,4.12,2.95-3.44,1.76.2-3.83,4.42,3.87,5.42-1.74-.2-3-4.19-3.05,3.5ZM.63,17.26V4.55L10,5.63V7.09L2.1,6.19V9.91l4.76.55v1.46L2.1,11.37V16l8.36,1v1.46Z"/><g class="cls-32"><path class="cls-33" d="M39.68,21.76l4.67-9.28.9.11L50,23l-1.53-.18-1.2-2.64-4.85-.57L41.2,21.94ZM43,18.36l3.59.42-1.79-4ZM31.34,16.49v4.29l-1.43-.17v-9.8l6.31.74a3.53,3.53,0,0,1,2.21,1,2.9,2.9,0,0,1,.8,2.11,2.44,2.44,0,0,1-.64,1.73,2.28,2.28,0,0,1-1.64.75l2.56,4.61L38,21.56,35.35,17Zm0-1.44,4.88.58a1.53,1.53,0,0,0,1.14-.21,1.13,1.13,0,0,0,.39-.95,1.39,1.39,0,0,0-.39-1A1.82,1.82,0,0,0,36.22,13l-4.88-.58Z"/></g><g class="cls-34"><path class="cls-33" d="M11.12,18.44,15,14,11.17,8.61l1.73.21,3,4.13,2.95-3.43,1.76.21-3.83,4.4,3.88,5.44-1.74-.21-3-4.21-3,3.49ZM.65,17.19V4.48L10,5.59V7.06L2.13,6.12V9.85l4.76.56v1.46l-4.76-.56v4.6l8.35,1v1.46Z"/></g></g></svg>