<svg width="22" height="22" viewBox="0 0 22 22" fill="none" xmlns="http://www.w3.org/2000/svg">
<mask id="mask0" mask-type="alpha" maskUnits="userSpaceOnUse" x="0" y="0" width="22" height="22">
<rect width="22" height="22" fill="white"/>
</mask>
<g mask="url(#mask0)">
<path fill-rule="evenodd" clip-rule="evenodd" d="M13.1783 11.4371C14.7091 9.2892 14.511 6.28795 12.5839 4.36091C10.436 2.21303 6.95362 2.21303 4.80574 4.36091C2.65785 6.5088 2.65785 9.9912 4.80574 12.1391C6.73278 14.0661 9.73402 14.2643 11.882 12.7335L17.1212 17.9727L18.4175 16.6764L13.1783 11.4371C13.1783 11.4371 14.7091 9.2892 13.1783 11.4371ZM11.2875 5.65727C12.7195 7.0892 12.7195 9.4108 11.2875 10.8427C9.85563 12.2746 7.53402 12.2746 6.1021 10.8427C4.67018 9.4108 4.67018 7.0892 6.1021 5.65727C7.53402 4.22535 9.85563 4.22535 11.2875 5.65727C11.2875 5.65727 12.7195 7.0892 11.2875 5.65727Z" fill="#F2F3F7"/>
</g>
</svg>
