<svg width="0" height="0" class="hidden">
  <symbol xmlns="http://www.w3.org/2000/svg" viewBox="0 0 75 42" id="logo">
    <path fill-rule="evenodd" clip-rule="evenodd" d="M58.813 41.418c5.36-4.147 9.255-10.114 9.406-16.031.48-11.808-11.403-16.865-21.745-18.003-14.286-1.618-29.76 2.377-41.442 8.192C13.325 6.802 31.455-1.238 47.814.178c16.335 1.415 26.651 9.355 26.878 20.48.456 10.57-9.38 20.052-15.904 20.76h.025zM7.99 17.068h6.954L6.979 41.62H0l7.99-24.552zm11.15 0h7.485c3.262 0 5.79.354 7.611 1.011 1.82.683 3.034 1.922 3.692 3.768.607 1.82.43 4.273-.556 7.358a19.684 19.684 0 01-3.035 5.891c-1.29 1.72-2.68 3.035-4.222 4.046-1.543.986-3.085 1.644-4.729 1.972-1.618.329-3.59.506-5.84.506H11.2l7.965-24.552h-.025zm5.614 4.223l-5.209 16.106h1.189c1.618 0 2.933-.252 3.97-.733 1.062-.455 2.023-1.315 2.907-2.503.91-1.189 1.745-2.908 2.478-5.158.683-2.074.885-3.692.683-4.805-.202-1.137-.683-1.896-1.441-2.3-.733-.38-1.871-.582-3.414-.582H24.73l.025-.025zm29.66 11.378l6.321.303c-1.087 2.655-2.882 4.83-5.36 6.499-2.478 1.694-5.336 2.528-8.547 2.528-3.894 0-6.498-1.138-7.838-3.363-1.315-2.225-1.34-5.31-.05-9.254 1.314-3.97 3.312-7.055 6.068-9.305s6.144-3.338 10.14-3.338c6.598 0 9.178 3.136 7.686 9.482l-6.473.354c1.011-3.666.126-5.487-2.63-5.487-1.467 0-2.781.582-4.046 1.77-1.239 1.189-2.402 3.44-3.514 6.827-.961 3.01-1.264 5.083-.835 6.246.43 1.138 1.442 1.694 2.984 1.694 2.554 0 4.577-1.644 6.094-4.93v-.026zm16.739-6.979l.025-.202c.278-7.08-3.262-12.213-8.117-15.525-4.728-3.237-10.822-4.88-16.233-5.512-3.767-.405-7.56-.455-11.378-.228l-4.5.48 1.971-.505c4.83-1.087 9.836-1.543 14.691-1.138 15.222 1.315 24.021 8.445 24.198 17.674.076 1.644-.152 3.262-.607 4.83l-.025.101-.025.025z" ></path>

  </symbol>
  <symbol  xmlns="http://www.w3.org/2000/svg" viewBox="0 0 34 26" id="short_left">
    <path d="M8.312 10.917l7.459-7.48L12.833.5.333 13l12.5 12.5 2.938-2.938-7.459-7.479h25.355v-4.166H8.312z" ></path>
  </symbol>
  <symbol xmlns="http://www.w3.org/2000/svg" viewBox="0 0 34 26" id="short_right">
    <path d="M25.687 15.083l-7.458 7.48 2.938 2.937 12.5-12.5L21.167.5l-2.938 2.938 7.458 7.479H.333v4.166h25.354z" ></path>
  </symbol>
  <symbol  xmlns="http://www.w3.org/2000/svg" viewBox="0 0 16 16" id="tariff-arrow">
    <path d="M1 8h14m0 0L8 1m7 7l-7 7" stroke="#006285" stroke-width="1.5" stroke-linecap="round" stroke-linejoin="round"></path>
  </symbol>
  <symbol  xmlns="http://www.w3.org/2000/svg" viewBox="0 0 20 22" id="user">
    <mask id="a" maskUnits="userSpaceOnUse" x="0" y="0" >
      <path  d="M0 0h22v22H0z"></path>
    </mask>
    <g >
      <path fill-rule="evenodd" clip-rule="evenodd" d="M6.417 6.417A4.589 4.589 0 0011 11a4.588 4.588 0 004.583-4.583A4.588 4.588 0 0011 1.833a4.589 4.589 0 00-4.583 4.584zm1.833 0A2.753 2.753 0 0111 3.667a2.753 2.753 0 012.75 2.75A2.753 2.753 0 0111 9.167a2.753 2.753 0 01-2.75-2.75zm11 11.916a6.425 6.425 0 00-6.417-6.416H9.167a6.424 6.424 0 00-6.417 6.416v.917h1.833v-.917a4.589 4.589 0 014.584-4.583h3.666a4.589 4.589 0 014.584 4.583v.917h1.833v-.917z" ></path>
    </g>
  </symbol>
  <symbol  xmlns="http://www.w3.org/2000/svg" viewBox="0 0 13 11" id="arrow.triangle">
    <path d="M12.004 4.75h-.659C11.067 2.363 8.995.446 6.5.446a4.76 4.76 0 00-3.498 1.545c-.231.226-.222.527-.033.701.193.18.47.18.706-.037A3.841 3.841 0 016.5 1.42a3.885 3.885 0 013.86 3.329h-.72c-.362 0-.46.268-.249.56l1.125 1.592c.175.235.438.24.608 0l1.13-1.587c.212-.297.117-.565-.25-.565zM.996 5.885h.664c.278 2.387 2.35 4.303 4.84 4.303a4.77 4.77 0 003.508-1.55c.226-.225.216-.526.028-.7-.193-.18-.466-.18-.706.042A3.813 3.813 0 016.5 9.213a3.883 3.883 0 01-3.856-3.328h.716c.357 0 .46-.269.249-.56l-1.13-1.592c-.17-.236-.433-.24-.603 0L.746 5.32c-.216.296-.117.565.25.565z" ></path>
  </symbol>
  <symbol  xmlns="http://www.w3.org/2000/svg" viewBox="0 0 28 17" id="arrow-down">
    <path d="M27.387 3.595l-11.943 12.21c-.424.44-.895.644-1.444.644-.55 0-1.052-.22-1.46-.644L.612 3.595A1.814 1.814 0 01.08 2.292 1.84 1.84 0 011.93.425c.502 0 .988.204 1.35.565l10.703 11.002L24.72.99a1.887 1.887 0 011.35-.565 1.84 1.84 0 011.852 1.867c0 .502-.188.942-.534 1.303z"></path>
  </symbol>
  <symbol  xmlns="http://www.w3.org/2000/svg" viewBox="0 0 16 16" id="arrow-right">
    <path d="M1 8h14m0 0L8 1m7 7l-7 7" stroke="#37355B" stroke-width="1.5" stroke-linecap="round" stroke-linejoin="round"></path>
  </symbol>
   <symbol  xmlns="http://www.w3.org/2000/svg" viewBox="0 0 16 16" id="arrow-right-none">
    <path d="M1 8h14m0 0L8 1m7 7l-7 7"  stroke-width="1.5" stroke-linecap="round" stroke-linejoin="round"></path>
  </symbol>
  <symbol  xmlns="http://www.w3.org/2000/svg" viewBox="0 0 10 8" id="Check_mark">
    <path d="M8.6 1.257l-5.2 5.2-2.4-2.4" stroke="#006285" stroke-width="2" stroke-linecap="round" stroke-linejoin="round"></path>
  </symbol>
 
<symbol  xmlns="http://www.w3.org/2000/svg" viewBox="0 0 43 43" id="chevron_right">
    <mask id="a" maskUnits="userSpaceOnUse" x="0" y="0" width="43" height="43">
      <path  d="M0 0h43v43H0z"></path>
    </mask>
    <g >
      <path d="M28.151 21.5L17.382 10.73l-2.533 2.534 8.235 8.235-8.235 8.235 2.533 2.534 10.77-10.77z"  ></path>
    </g>
  </symbol>

 <symbol fill="none" xmlns="http://www.w3.org/2000/svg" viewBox="0 0 10 8" id="check_mark">
    <path d="M8.6 1.257l-5.2 5.2-2.4-2.4" stroke="#006285" stroke-width="2" stroke-linecap="round" stroke-linejoin="round"></path>
  </symbol>


  <symbol   xmlns="http://www.w3.org/2000/svg" viewBox="0 0 21 54" id="line">
    <path   d="M14.016 0h6.196L6.196 53.5H0z"></path>
  </symbol>

  <symbol  xmlns="http://www.w3.org/2000/svg" viewBox="0 0 42 42" id="menu_alt_01">
    <mask id="a" maskUnits="userSpaceOnUse" x="0" y="0" width="42" height="42">
      <path  d="M0 0h42v42H0z"></path>
    </mask>
    <g>
      <path fill-rule="evenodd" clip-rule="evenodd" d="M5.25 10.5h31.5V14H5.25v-3.5zm31.5 12.25v-3.5H5.25v3.5h31.5zm0 8.75V28H21v3.5h15.75z"  ></path>
    </g>
  </symbol>
  <symbol  xmlns="http://www.w3.org/2000/svg" viewBox="0 0 22 22" id="search">
    <mask id="a" maskUnits="userSpaceOnUse" x="0" y="0" width="22" height="22">
      <path  d="M0 0h22v22H0z"></path>
    </mask>
    <g >
      <path fill-rule="evenodd" clip-rule="evenodd" d="M13.178 11.437a5.501 5.501 0 00-8.372-7.076 5.5 5.5 0 007.076 8.372l5.24 5.24 1.296-1.297-5.24-5.239s1.531-2.148 0 0zm-1.89-5.78a3.667 3.667 0 11-5.186 5.186 3.667 3.667 0 015.185-5.186s1.432 1.432 0 0z" ></path>
    </g>
  </symbol>

    <symbol aria-hidden="true" data-prefix="fab" data-icon="vk" xmlns="http://www.w3.org/2000/svg" viewBox="0 0 576 512" id="vk">
    <path fill="currentColor" d="M545 117.7c3.7-12.5 0-21.7-17.8-21.7h-58.9c-15 0-21.9 7.9-25.6 16.7 0 0-30 73.1-72.4 120.5-13.7 13.7-20 18.1-27.5 18.1-3.7 0-9.4-4.4-9.4-16.9V117.7c0-15-4.2-21.7-16.6-21.7h-92.6c-9.4 0-15 7-15 13.5 0 14.2 21.2 17.5 23.4 57.5v86.8c0 19-3.4 22.5-10.9 22.5-20 0-68.6-73.4-97.4-157.4-5.8-16.3-11.5-22.9-26.6-22.9H38.8c-16.8 0-20.2 7.9-20.2 16.7 0 15.6 20 93.1 93.1 195.5C160.4 378.1 229 416 291.4 416c37.5 0 42.1-8.4 42.1-22.9 0-66.8-3.4-73.1 15.4-73.1 8.7 0 23.7 4.4 58.7 38.1 40 40 46.6 57.9 69 57.9h58.9c16.8 0 25.3-8.4 20.4-25-11.2-34.9-86.9-106.7-90.3-111.5-8.7-11.2-6.2-16.2 0-26.2.1-.1 72-101.3 79.4-135.6z"></path>
  </symbol>

  <symbol aria-hidden="true" data-prefix="fas" data-icon="heart" xmlns="http://www.w3.org/2000/svg" viewBox="0 0 512 512" id="heart-solid">
    <path fill="currentColor" d="M462.3 62.6C407.5 15.9 326 24.3 275.7 76.2L256 96.5l-19.7-20.3C186.1 24.3 104.5 15.9 49.7 62.6c-62.8 53.6-66.1 149.8-9.9 207.9l193.5 199.8c12.5 12.9 32.8 12.9 45.3 0l193.5-199.8c56.3-58.1 53-154.3-9.8-207.9z"></path>
  </symbol>
  <symbol aria-hidden="true" data-prefix="far" data-icon="star" xmlns="http://www.w3.org/2000/svg" viewBox="0 0 576 512" id="star-regular">
    <path fill="currentColor" d="M528.1 171.5L382 150.2 316.7 17.8c-11.7-23.6-45.6-23.9-57.4 0L194 150.2 47.9 171.5c-26.2 3.8-36.7 36.1-17.7 54.6l105.7 103-25 145.5c-4.5 26.3 23.2 46 46.4 33.7L288 439.6l130.7 68.7c23.2 12.2 50.9-7.4 46.4-33.7l-25-145.5 105.7-103c19-18.5 8.5-50.8-17.7-54.6zM388.6 312.3l23.7 138.4L288 385.4l-124.3 65.3 23.7-138.4-100.6-98 139-20.2 62.2-126 62.2 126 139 20.2-100.6 98z"></path>
  </symbol>
  <symbol aria-hidden="true" data-prefix="fab" data-icon="facebook-messenger" xmlns="http://www.w3.org/2000/svg" viewBox="0 0 512 512" id="messenger">
    <path fill="currentColor" d="M256.55 8C116.52 8 8 110.34 8 248.57c0 72.3 29.71 134.78 78.07 177.94 8.35 7.51 6.63 11.86 8.05 58.23A19.92 19.92 0 00122 502.31c52.91-23.3 53.59-25.14 62.56-22.7C337.85 521.8 504 423.7 504 248.57 504 110.34 396.59 8 256.55 8zm149.24 185.13l-73 115.57a37.37 37.37 0 01-53.91 9.93l-58.08-43.47a15 15 0 00-18 0l-78.37 59.44c-10.46 7.93-24.16-4.6-17.11-15.67l73-115.57a37.36 37.36 0 0153.91-9.93l58.06 43.46a15 15 0 0018 0l78.41-59.38c10.44-7.98 24.14 4.54 17.09 15.62z"></path>
  </symbol>
  <symbol aria-hidden="true" data-prefix="fab" data-icon="telegram-plane" xmlns="http://www.w3.org/2000/svg" viewBox="0 0 448 512" id="telegram">
    <path fill="currentColor" d="M446.7 98.6l-67.6 318.8c-5.1 22.5-18.4 28.1-37.3 17.5l-103-75.9-49.7 47.8c-5.5 5.5-10.1 10.1-20.7 10.1l7.4-104.9 190.9-172.5c8.3-7.4-1.8-11.5-12.9-4.1L117.8 284 16.2 252.2c-22.1-6.9-22.5-22.1 4.6-32.7L418.2 66.4c18.4-6.9 34.5 4.1 28.5 32.2z"></path>
  </symbol>
  <symbol aria-hidden="true" data-prefix="fas" data-icon="star" xmlns="http://www.w3.org/2000/svg" viewBox="0 0 576 512" id="star-solid">
    <path fill="currentColor" d="M259.3 17.8L194 150.2 47.9 171.5c-26.2 3.8-36.7 36.1-17.7 54.6l105.7 103-25 145.5c-4.5 26.3 23.2 46 46.4 33.7L288 439.6l130.7 68.7c23.2 12.2 50.9-7.4 46.4-33.7l-25-145.5 105.7-103c19-18.5 8.5-50.8-17.7-54.6L382 150.2 316.7 17.8c-11.7-23.6-45.6-23.9-57.4 0z"></path>
  </symbol>
  <symbol aria-hidden="true" data-prefix="fab" data-icon="viber" xmlns="http://www.w3.org/2000/svg" viewBox="0 0 512 512" id="viber">
    <path fill="currentColor" d="M444 49.9C431.3 38.2 379.9.9 265.3.4c0 0-135.1-8.1-200.9 52.3C27.8 89.3 14.9 143 13.5 209.5c-1.4 66.5-3.1 191.1 117 224.9h.1l-.1 51.6s-.8 20.9 13 25.1c16.6 5.2 26.4-10.7 42.3-27.8 8.7-9.4 20.7-23.2 29.8-33.7 82.2 6.9 145.3-8.9 152.5-11.2 16.6-5.4 110.5-17.4 125.7-142 15.8-128.6-7.6-209.8-49.8-246.5zM457.9 287c-12.9 104-89 110.6-103 115.1-6 1.9-61.5 15.7-131.2 11.2 0 0-52 62.7-68.2 79-5.3 5.3-11.1 4.8-11-5.7 0-6.9.4-85.7.4-85.7-.1 0-.1 0 0 0-101.8-28.2-95.8-134.3-94.7-189.8 1.1-55.5 11.6-101 42.6-131.6 55.7-50.5 170.4-43 170.4-43 96.9.4 143.3 29.6 154.1 39.4 35.7 30.6 53.9 103.8 40.6 211.1zm-139-80.8c.4 8.6-12.5 9.2-12.9.6-1.1-22-11.4-32.7-32.6-33.9-8.6-.5-7.8-13.4.7-12.9 27.9 1.5 43.4 17.5 44.8 46.2zm20.3 11.3c1-42.4-25.5-75.6-75.8-79.3-8.5-.6-7.6-13.5.9-12.9 58 4.2 88.9 44.1 87.8 92.5-.1 8.6-13.1 8.2-12.9-.3zm47 13.4c.1 8.6-12.9 8.7-12.9.1-.6-81.5-54.9-125.9-120.8-126.4-8.5-.1-8.5-12.9 0-12.9 73.7.5 133 51.4 133.7 139.2zM374.9 329v.2c-10.8 19-31 40-51.8 33.3l-.2-.3c-21.1-5.9-70.8-31.5-102.2-56.5-16.2-12.8-31-27.9-42.4-42.4-10.3-12.9-20.7-28.2-30.8-46.6-21.3-38.5-26-55.7-26-55.7-6.7-20.8 14.2-41 33.3-51.8h.2c9.2-4.8 18-3.2 23.9 3.9 0 0 12.4 14.8 17.7 22.1 5 6.8 11.7 17.7 15.2 23.8 6.1 10.9 2.3 22-3.7 26.6l-12 9.6c-6.1 4.9-5.3 14-5.3 14s17.8 67.3 84.3 84.3c0 0 9.1.8 14-5.3l9.6-12c4.6-6 15.7-9.8 26.6-3.7 14.7 8.3 33.4 21.2 45.8 32.9 7 5.7 8.6 14.4 3.8 23.6z"></path>
  </symbol>
  <symbol aria-hidden="true" data-prefix="fab" data-icon="odnoklassniki" xmlns="http://www.w3.org/2000/svg" viewBox="0 0 320 512" id="odnoklassniki">
    <path fill="currentColor" d="M275.1 334c-27.4 17.4-65.1 24.3-90 26.9l20.9 20.6 76.3 76.3c27.9 28.6-17.5 73.3-45.7 45.7-19.1-19.4-47.1-47.4-76.3-76.6L84 503.4c-28.2 27.5-73.6-17.6-45.4-45.7 19.4-19.4 47.1-47.4 76.3-76.3l20.6-20.6c-24.6-2.6-62.9-9.1-90.6-26.9-32.6-21-46.9-33.3-34.3-59 7.4-14.6 27.7-26.9 54.6-5.7 0 0 36.3 28.9 94.9 28.9s94.9-28.9 94.9-28.9c26.9-21.1 47.1-8.9 54.6 5.7 12.4 25.7-1.9 38-34.5 59.1zM30.3 129.7C30.3 58 88.6 0 160 0s129.7 58 129.7 129.7c0 71.4-58.3 129.4-129.7 129.4s-129.7-58-129.7-129.4zm66 0c0 35.1 28.6 63.7 63.7 63.7s63.7-28.6 63.7-63.7c0-35.4-28.6-64-63.7-64s-63.7 28.6-63.7 64z"></path>
  </symbol>
  <symbol aria-hidden="true" data-prefix="fab" data-icon="facebook-f" xmlns="http://www.w3.org/2000/svg" viewBox="0 0 320 512" id="facebook">
    <path fill="currentColor" d="M279.14 288l14.22-92.66h-88.91v-60.13c0-25.35 12.42-50.06 52.24-50.06h40.42V6.26S260.43 0 225.36 0c-73.22 0-121.08 44.38-121.08 124.72v70.62H22.89V288h81.39v224h100.17V288z"></path>
  </symbol>
  <symbol aria-hidden="true" data-prefix="fab" data-icon="apple" xmlns="http://www.w3.org/2000/svg" viewBox="0 0 384 512" id="apple">
    <path fill="currentColor" d="M318.7 268.7c-.2-36.7 16.4-64.4 50-84.8-18.8-26.9-47.2-41.7-84.7-44.6-35.5-2.8-74.3 20.7-88.5 20.7-15 0-49.4-19.7-76.4-19.7C63.3 141.2 4 184.8 4 273.5q0 39.3 14.4 81.2c12.8 36.7 59 126.7 107.2 125.2 25.2-.6 43-17.9 75.8-17.9 31.8 0 48.3 17.9 76.4 17.9 48.6-.7 90.4-82.5 102.6-119.3-65.2-30.7-61.7-90-61.7-91.9zm-56.6-164.2c27.3-32.4 24.8-61.9 24-72.5-24.1 1.4-52 16.4-67.9 34.9-17.5 19.8-27.8 44.3-25.6 71.9 26.1 2 49.9-11.4 69.5-34.3z"></path>
  </symbol>
  <symbol aria-hidden="true" data-prefix="fab" data-icon="instagram" xmlns="http://www.w3.org/2000/svg" viewBox="0 0 448 512" id="instagram">
    <path fill="currentColor" d="M224.1 141c-63.6 0-114.9 51.3-114.9 114.9s51.3 114.9 114.9 114.9S339 319.5 339 255.9 287.7 141 224.1 141zm0 189.6c-41.1 0-74.7-33.5-74.7-74.7s33.5-74.7 74.7-74.7 74.7 33.5 74.7 74.7-33.6 74.7-74.7 74.7zm146.4-194.3c0 14.9-12 26.8-26.8 26.8-14.9 0-26.8-12-26.8-26.8s12-26.8 26.8-26.8 26.8 12 26.8 26.8zm76.1 27.2c-1.7-35.9-9.9-67.7-36.2-93.9-26.2-26.2-58-34.4-93.9-36.2-37-2.1-147.9-2.1-184.9 0-35.8 1.7-67.6 9.9-93.9 36.1s-34.4 58-36.2 93.9c-2.1 37-2.1 147.9 0 184.9 1.7 35.9 9.9 67.7 36.2 93.9s58 34.4 93.9 36.2c37 2.1 147.9 2.1 184.9 0 35.9-1.7 67.7-9.9 93.9-36.2 26.2-26.2 34.4-58 36.2-93.9 2.1-37 2.1-147.8 0-184.8zM398.8 388c-7.8 19.6-22.9 34.7-42.6 42.6-29.5 11.7-99.5 9-132.1 9s-102.7 2.6-132.1-9c-19.6-7.8-34.7-22.9-42.6-42.6-11.7-29.5-9-99.5-9-132.1s-2.6-102.7 9-132.1c7.8-19.6 22.9-34.7 42.6-42.6 29.5-11.7 99.5-9 132.1-9s102.7-2.6 132.1 9c19.6 7.8 34.7 22.9 42.6 42.6 11.7 29.5 9 99.5 9 132.1s2.7 102.7-9 132.1z"></path>
  </symbol>
  <symbol aria-hidden="true" data-prefix="fab" data-icon="google-play" xmlns="http://www.w3.org/2000/svg" viewBox="0 0 512 512" id="google-play">
    <path fill="currentColor" d="M325.3 234.3L104.6 13l280.8 161.2-60.1 60.1zM47 0C34 6.8 25.3 19.2 25.3 35.3v441.3c0 16.1 8.7 28.5 21.7 35.3l256.6-256L47 0zm425.2 225.6l-58.9-34.1-65.7 64.5 65.7 64.5 60.1-34.1c18-14.3 18-46.5-1.2-60.8zM104.6 499l280.8-161.2-60.1-60.1L104.6 499z"></path>
  </symbol>
  <symbol aria-hidden="true" data-prefix="far" data-icon="heart" xmlns="http://www.w3.org/2000/svg" viewBox="0 0 512 512" id="heart-regular">
    <path fill="currentColor" d="M458.4 64.3C400.6 15.7 311.3 23 256 79.3 200.7 23 111.4 15.6 53.6 64.3-21.6 127.6-10.6 230.8 43 285.5l175.4 178.7c10 10.2 23.4 15.9 37.6 15.9 14.3 0 27.6-5.6 37.6-15.8L469 285.6c53.5-54.7 64.7-157.9-10.6-221.3zm-23.6 187.5L259.4 430.5c-2.4 2.4-4.4 2.4-6.8 0L77.2 251.8c-36.5-37.2-43.9-107.6 7.3-150.7 38.9-32.7 98.9-27.8 136.5 10.5l35 35.7 35-35.7c37.8-38.5 97.8-43.2 136.5-10.6 51.1 43.1 43.5 113.9 7.3 150.8z"></path>
  </symbol>

  <symbol xmlns="http://www.w3.org/2000/svg" viewBox="0 0 29 29" id="arrow.backward">
    <path d="M5.88 14.133c0 .273.118.546.327.746l6.008 6c.219.208.455.309.72.309.573 0 .991-.41.991-.965a.967.967 0 00-.3-.72l-2.048-2.075-2.64-2.412 2.121.127h11.033c.6 0 1.02-.418 1.02-1.01 0-.6-.42-1.02-1.02-1.02H11.059l-2.112.128 2.63-2.412 2.049-2.076a.967.967 0 00.3-.72c0-.554-.418-.964-.992-.964-.264 0-.51.1-.746.328l-5.98 5.98c-.21.2-.329.474-.329.756z" ></path>
  </symbol>

  <symbol  xmlns="http://www.w3.org/2000/svg" viewBox="0 0 7 12" id="button-nav-next">
    <path fill-rule="evenodd" clip-rule="evenodd" d="M.293.293a1 1 0 000 1.414L4.586 6 .293 10.293a1 1 0 101.414 1.414l5-5a1 1 0 000-1.414l-5-5a1 1 0 00-1.414 0z" ></path>
  </symbol>
  <symbol  xmlns="http://www.w3.org/2000/svg" viewBox="0 0 7 12" id="button-nav-prev">
    <path fill-rule="evenodd" clip-rule="evenodd" d="M6.707 11.707a1 1 0 000-1.414L2.414 6l4.293-4.293A1 1 0 005.293.293l-5 5a1 1 0 000 1.414l5 5a1 1 0 001.414 0z" ></path>
  </symbol>

    <symbol  xmlns="http://www.w3.org/2000/svg" viewBox="0 0 24 24" id="phone">
    <mask id="a" maskUnits="userSpaceOnUse" x="0" y="0" width="24" height="24">
      <path d="M0 0h24v24H0z"></path>
    </mask>
    <g >
      <path fill-rule="evenodd" clip-rule="evenodd" d="M16.293 12.293L14.7 13.887c-.739-.22-2.118-.72-2.992-1.594-.874-.874-1.374-2.253-1.594-2.992l1.594-1.594a.999.999 0 000-1.414l-4-4a.999.999 0 00-1.414 0L3.581 5.005c-.38.38-.594.902-.586 1.435.023 1.424.4 6.37 4.298 10.268 3.898 3.898 8.844 4.274 10.27 4.298h.027c.528 0 1.027-.208 1.405-.586l2.712-2.712a.999.999 0 000-1.414l-4-4.001a.999.999 0 00-1.414 0zm-7.586 3c-3.366-3.366-3.692-7.651-3.712-8.874L7 4.414 9.586 7 8.293 8.293a1 1 0 00-.272.912c.024.115.611 2.842 2.271 4.502 1.66 1.66 4.387 2.247 4.502 2.271a.991.991 0 00.912-.271L17 14.414 19.586 17l-2.006 2.005c-1.248-.021-5.518-.356-8.873-3.712z"></path>
    </g>
  </symbol>
  <symbol  xmlns="http://www.w3.org/2000/svg" viewBox="0 0 24 24" id="lock">
    <path fill-rule="evenodd" clip-rule="evenodd" d="M9 16a3 3 0 116 0 3 3 0 01-6 0zm3-1a1 1 0 100 2 1 1 0 000-2z"></path>
    <path fill-rule="evenodd" clip-rule="evenodd" d="M6 9V6.444c0-1.484.664-2.88 1.8-3.89C8.932 1.548 10.444 1 12 1s3.068.548 4.2 1.554c1.136 1.01 1.8 2.406 1.8 3.89V9h1c1.737 0 3 1.508 3 3.182v7.636C22 21.492 20.737 23 19 23H5c-1.737 0-3-1.508-3-3.182v-7.636C2 10.508 3.263 9 5 9h1zm3.129-4.95C9.872 3.387 10.904 3 12 3s2.128.388 2.871 1.05C15.611 4.706 16 5.57 16 6.443V9H8V6.444c0-.873.39-1.737 1.129-2.395zM19 11c.472 0 1 .445 1 1.182v7.636c0 .737-.528 1.182-1 1.182H5c-.472 0-1-.445-1-1.182v-7.636C4 11.445 4.528 11 5 11h14z" ></path>
  </symbol>

  <symbol  xmlns="http://www.w3.org/2000/svg" viewBox="0 0 24 24" id="show">
    <mask id="a" maskUnits="userSpaceOnUse" x="0" y="0" width="24" height="24">
      <path  d="M0 0h24v24H0z"></path>
    </mask>
    <g >
      <path fill-rule="evenodd" clip-rule="evenodd" d="M9 12c0 1.642 1.358 3 3 3 1.641 0 3-1.358 3-3 0-1.641-1.359-3-3-3a3.02 3.02 0 00-3 3zm-6.895-.316L2 12l.104.316C2.126 12.383 4.408 19 12 19c7.592 0 9.874-6.617 9.895-6.684L22 12l-.104-.316C21.874 11.617 19.592 5 12 5c-7.592 0-9.874 6.617-9.895 6.684zM4.117 12c.5-1.158 2.564-5 7.883-5 5.322 0 7.384 3.846 7.883 5-.5 1.158-2.564 5-7.883 5-5.322 0-7.384-3.846-7.883-5z" ></path>
    </g>
  </symbol>


  <symbol  xmlns="http://www.w3.org/2000/svg" viewBox="0 0 12 12" id="login-close">
    <path d="M10.658.167L6 4.825 1.34.167.167 1.342 4.825 6 .167 10.658l1.174 1.175L6 7.175l4.658 4.658 1.175-1.175L7.175 6l4.658-4.658L10.658.167z" fill="#D0D7DD"></path>
  </symbol>
  <symbol xmlns="http://www.w3.org/2000/svg" viewBox="0 0 14 14" id="login-backward">
    <path d="M12.834 7H1.167m0 0L7 12.833M1.167 7L7 1.167" stroke="#D0D7DD" stroke-width="1.5" stroke-linecap="round" stroke-linejoin="round"></path>
  </symbol>
  <symbol  xmlns="http://www.w3.org/2000/svg" viewBox="0 0 2 10" id="info">
    <path d="M2 1a1 1 0 11-2 0 1 1 0 012 0zM1 4a1 1 0 00-1 1v4a1 1 0 102 0V5a1 1 0 00-1-1z" ></path>
  </symbol>

    <symbol  xmlns="http://www.w3.org/2000/svg" viewBox="0 0 25 25" id="headphones">
    <path d="M6.64 10.254a2.2 2.2 0 00-2.197 2.197v5.957a2.2 2.2 0 002.198 2.197 2.2 2.2 0 002.197-2.197v-5.957a2.2 2.2 0 00-2.197-2.197zm-3.661 2.197c0-.211.027-.415.062-.617a2.193 2.193 0 00-1.527 2.082v3.027c0 .977.644 1.797 1.527 2.082a3.634 3.634 0 01-.062-.617v-5.957zm15.381-2.197a2.2 2.2 0 00-2.198 2.197v5.957a2.2 2.2 0 002.197 2.197c.22 0 .43-.042.63-.102a2.193 2.193 0 01-2.095 1.567h-2.332a2.194 2.194 0 00-2.062-1.465 2.2 2.2 0 00-2.197 2.198A2.2 2.2 0 0012.5 25c.954 0 1.759-.614 2.062-1.465h2.333a3.666 3.666 0 003.662-3.662v-7.422a2.2 2.2 0 00-2.198-2.197zm3.599 1.58c.034.202.062.406.062.617v5.957c0 .211-.028.416-.062.617a2.193 2.193 0 001.527-2.082v-3.027c0-.976-.644-1.796-1.527-2.082z" fill="currentColor"></path>
    <path d="M12.5 0C6.442 0 1.514 4.928 1.514 10.986v.019c.436-.33.94-.572 1.498-.68.342-4.942 4.461-8.86 9.488-8.86 5.027 0 9.146 3.918 9.488 8.86.557.108 1.062.35 1.498.68v-.019C23.486 4.928 18.558 0 12.5 0z" fill="currentColor"></path>
  </symbol>


<symbol fill="currentColor" xmlns="http://www.w3.org/2000/svg" viewBox="0 0 15 15" id="exclude">
    <path fill-rule="evenodd" clip-rule="evenodd" d="M.5 7.5a7 7 0 1014 0 7 7 0 00-14 0zm7-4.375c-.938 0-1.806.5-2.275 1.313a.875.875 0 101.514.875.875.875 0 01.761-.438.875.875 0 110 1.75.875.875 0 00-.875.875v.875a.875.875 0 101.75 0v-.158A2.625 2.625 0 007.5 3.125zm0 8.755a.875.875 0 100-1.75.875.875 0 000 1.75z"></path>
  </symbol>
  <symbol fill="currentColor" xmlns="http://www.w3.org/2000/svg" viewBox="0 0 19 14" id="dot.radiowaves">
    <path d="M.374 7.071c0 2.304.861 4.416 2.365 5.995.267.287.65.267.875.014.226-.24.178-.595-.075-.868-1.292-1.354-1.996-3.165-1.996-5.14 0-1.976.704-3.788 1.996-5.141.253-.274.3-.63.075-.875-.225-.246-.608-.267-.875.02C1.235 2.648.374 4.768.374 7.071zm18.245 0c0-2.303-.861-4.423-2.365-5.995-.274-.287-.656-.266-.882-.02-.219.246-.178.601.082.875 1.292 1.353 1.996 3.165 1.996 5.14 0 1.976-.704 3.787-1.996 5.14-.26.274-.3.63-.082.87.226.252.608.273.882-.015 1.504-1.579 2.365-3.691 2.365-5.995zm-15.757 0c0 1.64.588 3.165 1.64 4.307.274.3.67.3.903.034.233-.26.171-.588-.089-.875-.834-.936-1.285-2.146-1.285-3.466 0-1.326.451-2.529 1.285-3.466.26-.287.322-.622.09-.875-.233-.273-.63-.266-.903.028C3.45 3.906 2.863 5.43 2.863 7.07zm13.262 0c0-1.64-.588-3.165-1.634-4.313-.273-.294-.677-.301-.909-.028-.226.253-.17.588.089.875.834.937 1.285 2.14 1.285 3.466 0 1.32-.451 2.53-1.285 3.466-.26.287-.315.615-.089.875.232.267.636.267.91-.034 1.045-1.142 1.633-2.666 1.633-4.307zm-10.767 0c0 .93.315 1.805.862 2.495.253.322.683.329.923.055.225-.253.143-.56-.082-.875a2.742 2.742 0 01-.54-1.675c0-.635.19-1.217.54-1.675.225-.32.307-.628.082-.881-.24-.267-.67-.26-.923.054a4.048 4.048 0 00-.862 2.502zm8.279 0c0-.93-.315-1.804-.868-2.502-.247-.314-.677-.32-.916-.054-.233.253-.15.56.082.881.348.458.533 1.04.533 1.675 0 .636-.185 1.217-.533 1.675-.233.315-.315.622-.082.875.239.274.67.267.916-.055a3.98 3.98 0 00.868-2.495zM9.493 8.74a1.69 1.69 0 001.668-1.675c0-.916-.765-1.668-1.668-1.668-.895 0-1.668.752-1.668 1.668 0 .916.773 1.675 1.668 1.675z"></path>
  </symbol>
  <symbol fill="currentColor" xmlns="http://www.w3.org/2000/svg" viewBox="0 0 21 17" id="mail">
    <path d="M3.513 16.389h14.176c1.697 0 2.681-.985 2.681-2.866V3.812c0-1.881-.993-2.866-2.892-2.866H3.303c-1.697 0-2.68.976-2.68 2.866v9.711c0 1.881.992 2.866 2.89 2.866zM9.507 8.97L3.108 2.643c.123-.027.264-.044.413-.044H17.47c.158 0 .299.017.43.052l-6.39 6.32c-.368.36-.676.518-1.001.518-.325 0-.633-.167-1.002-.518zM2.265 3.935l4.78 4.702-4.78 4.728v-9.43zm11.707 4.702l4.755-4.676v9.387l-4.755-4.711zm-10.45 6.09c-.159 0-.308-.017-.44-.043L8.118 9.69l.475.475c.641.624 1.257.888 1.916.888.65 0 1.274-.264 1.907-.888l.483-.475 5.028 4.984c-.14.035-.29.052-.457.052H3.52z" ></path>
  </symbol>
  <symbol fill="currentColor" xmlns="http://www.w3.org/2000/svg" viewBox="0 0 19 20" id="phone.connection">
    <path d="M14.677.767a.785.785 0 000 1.098l2.953 2.962a.796.796 0 001.107 0 .785.785 0 000-1.098L15.775.767a.785.785 0 00-1.098 0zM13.05 19.426c1.538 0 2.584-.44 3.533-1.468.061-.07.123-.15.185-.22.518-.58.773-1.186.773-1.749 0-.659-.352-1.257-1.134-1.793l-2.628-1.828c-.826-.571-1.775-.615-2.513.123l-.65.65c-.238.23-.449.247-.713.062-.474-.316-1.37-1.107-1.986-1.723-.624-.624-1.257-1.327-1.6-1.863-.184-.272-.175-.483.062-.712l.65-.65c.739-.738.695-1.696.115-2.523L5.28 3.07c-.517-.757-1.14-1.108-1.8-1.117-.57-.009-1.16.246-1.74.756l-.21.185C.481 3.852.033 4.88.033 6.479c0 2.593 1.503 5.652 4.43 8.561 2.909 2.892 5.932 4.386 8.587 4.386zm0-1.468c-2.241.035-5.028-1.556-7.48-3.981-2.45-2.427-4.086-5.318-4.05-7.559.008-.94.342-1.767 1.01-2.347.07-.052.123-.096.185-.15.246-.21.518-.324.756-.324.263 0 .483.105.659.369l1.652 2.47c.211.298.22.641-.088.94l-.703.694c-.668.65-.615 1.415-.184 2.013.474.66 1.353 1.67 2.109 2.408.8.791 1.89 1.767 2.522 2.224.598.422 1.354.483 2.004-.185l.695-.703c.298-.307.641-.299.949-.097l2.426 1.618c.272.175.369.395.369.65 0 .246-.114.51-.325.765a3.396 3.396 0 00-.15.184c-.589.668-1.415 1.002-2.355 1.011zm.738-12.243a1.239 1.239 0 001.732-.009 1.236 1.236 0 000-1.723 1.239 1.239 0 00-1.732-.008 1.241 1.241 0 000 1.74zm-3.208-.853a.774.774 0 000 1.09l2.962 2.962a.759.759 0 001.09 0 .759.759 0 000-1.09L11.67 4.862a.774.774 0 00-1.09 0zm-.888 4.94a1.23 1.23 0 001.732 0 1.204 1.204 0 000-1.723 1.223 1.223 0 00-1.732-.009 1.23 1.23 0 000 1.732z" ></path>
  </symbol>


<symbol  fill="currentColor" xmlns="http://www.w3.org/2000/svg" viewBox="0 0 83 71" id="cart">
    <path d="M29.457 52.621h40.922c1.652 0 3.164-1.3 3.164-3.164 0-1.828-1.512-3.129-3.164-3.129H30.266c-1.688 0-2.743-1.16-2.989-2.953l-.527-3.656h43.91c5.38 0 8.227-3.27 9-8.614l2.637-17.613c.07-.457.14-1.055.14-1.441 0-2.074-1.44-3.48-3.867-3.48H22.215l-.527-3.798C21.23 1.715 20 .168 16.098.168H4.039C2.281.168.734 1.715.734 3.508c0 1.828 1.547 3.375 3.305 3.375h11.004l5.45 37.195c.773 5.309 3.585 8.543 8.964 8.543zm45.668-37.758l-2.215 15.61c-.281 1.793-1.23 2.918-2.953 2.918l-44.121.035-2.707-18.563h51.996zM32.34 70.27a6.137 6.137 0 006.152-6.152 6.137 6.137 0 00-6.152-6.152 6.137 6.137 0 00-6.153 6.152 6.137 6.137 0 006.153 6.152zm32.484 0c3.41 0 6.117-2.742 6.117-6.152s-2.707-6.152-6.117-6.152-6.187 2.742-6.187 6.152 2.777 6.152 6.187 6.152z" fill="#006285"></path>
  </symbol>
  <symbol  fill="currentColor" xmlns="http://www.w3.org/2000/svg" viewBox="0 0 85 84" id="wrench.and.screwdriver">
    <path d="M6.395 78.27c6.257 6.187 14.73 6.152 20.742.07 5.414-5.45 6.96-12.13 15.785-23.766l14.133 14.063.457 3.094c.21 1.37 1.09 2.601 2.215 3.375l11.144 7.488c1.266.844 2.531.844 3.445-.07l6.715-6.715c.88-.915.809-2.215 0-3.446l-7.418-11.11c-.808-1.194-2.039-2.003-3.41-2.214l-3.058-.457-14.942-14.941c1.3-1.371 2.672-2.813 4.184-4.325 7.558 3.34 16.558 2.075 22.535-3.937 6.574-6.54 7.594-16.945 2.46-25.172l-4.007 4.008v.035l-5.66 5.59c-.879.914-1.969.95-2.883 0l-3.937-3.938c-.985-.984-1.02-2.074-.141-2.953l5.625-5.625 4.043-4.008C66.23-1.816 55.859-.832 49.285 5.742c-5.168 5.203-6.855 12.586-5.062 19.371L24.957 5.777C19.754.574 14.164.54 9.067 5.637l-4.958 4.992C-.988 15.69-.953 21.28 4.25 26.484l19.652 19.653c-8.015 5.203-13.148 6.996-17.578 11.355C.242 63.54.207 71.977 6.394 78.27zM60.64 18.96l5.097 5.063c2.637 2.637 6.012 2.707 8.508.211l4.746-4.78c.598 4.429-.773 8.858-3.972 12.058-5.73 5.73-15.223 5.449-21.305-.563-6.047-6.047-6.293-15.61-.528-21.304 3.165-3.165 7.594-4.536 11.989-3.973l-4.746 4.71c-2.602 2.602-2.496 5.942.21 8.579zm-52.63 3.2c-2.46-2.46-2.425-4.922-.034-7.348L13.25 9.47c2.426-2.426 4.922-2.39 7.383.07l21.691 21.69c-5.273 5.028-9.808 8.754-13.746 11.637L8.012 22.16zm21.446 6.645c.598.668 1.688.597 2.25.035.668-.668.668-1.688.035-2.32L18.945 13.758a1.56 1.56 0 00-2.215 0 1.57 1.57 0 000 2.25l12.727 12.797zm-4.465 4.43c.633.667 1.653.632 2.285 0a1.56 1.56 0 000-2.215L14.48 18.223c-.562-.598-1.617-.598-2.25 0-.632.633-.668 1.687-.035 2.285l12.797 12.726zm24.82 1.581c.633.598 1.266 1.196 1.934 1.688C28.648 60.27 31.04 66.21 23.023 74.262c-3.656 3.691-8.648 3.832-12.55-.035-3.903-3.973-3.727-8.93-.07-12.586 8.05-8.016 13.956-5.625 37.722-28.723.527.668 1.09 1.3 1.688 1.898zm13.641 35.332l-.738-3.937-16.172-16.172c.563-.703 1.16-1.371 1.793-2.11l16.348 16.348 3.937.668 6.469 8.578-3.094 3.094-8.543-6.469zm-46.793 2.11c2.285 0 4.149-1.864 4.149-4.184a4.156 4.156 0 00-4.149-4.148c-2.285 0-4.183 1.863-4.183 4.148a4.194 4.194 0 004.183 4.184z" fill="#006285"></path>
  </symbol>
  <symbol  fill="currentColor" xmlns="http://www.w3.org/2000/svg" viewBox="0 0 85 62" id="creditcard">
    <path d="M12.441 61.133h60.082c7.63 0 11.567-3.973 11.567-11.496V11.668C84.09 4.145 80.152.207 72.523.207H12.441C4.848.207.875 4.145.875 11.668v37.969c0 7.558 3.973 11.496 11.566 11.496zM7.871 12.3c0-3.375 1.793-5.063 5.027-5.063h59.168c3.235 0 5.028 1.688 5.028 5.063v2.531H7.87V12.3zm5.027 41.8c-3.234 0-5.027-1.687-5.027-5.062V23.094h69.223v25.945c0 3.375-1.793 5.063-5.028 5.063H12.898zm4.782-6.363h8.613c2.074 0 3.48-1.37 3.48-3.34V37.86c0-1.968-1.406-3.34-3.48-3.34H17.68c-2.04 0-3.446 1.372-3.446 3.34v6.54c0 1.968 1.407 3.34 3.446 3.34z" fill="#006285"></path>
  </symbol>
  <symbol  fill="currentColor" xmlns="http://www.w3.org/2000/svg" viewBox="0 0 87 36" id="phone.down">
    <path d="M.012 28.094c0 4.36 2.566 7.699 7.066 7.734.809 0 2.004-.07 3.621-.351l13.254-1.934c5.344-.738 6.75-2.918 6.75-7.418v-4.008c.035-1.09.527-1.582 1.336-1.793 5.168-1.125 17.754-1.125 22.922 0 .809.211 1.3.703 1.336 1.793v4.008c.035 4.5 1.406 6.68 6.75 7.418L76.3 35.477c1.617.28 2.812.351 3.62.351 4.5-.035 7.067-3.375 7.067-7.734V25.07C86.988 8.336 68.461.004 43.5.004 18.574.004.012 8.336.012 25.07v3.024zm6.258-.88v-1.862c0-14.309 18.457-19.547 37.23-19.547 18.773 0 37.23 5.238 37.23 19.547v1.863c0 1.582-.773 2.918-2.39 2.918-.457 0-.95-.106-1.758-.246l-12.234-2.285c-1.02-.211-1.793-.739-1.793-2.25v-4.5c0-3.797-1.336-5.239-3.305-5.872-5.836-1.617-25.664-1.617-31.465 0-2.004.633-3.34 2.075-3.34 5.872v4.5c0 1.511-.773 2.039-1.793 2.25l-12.234 2.285c-.809.14-1.3.246-1.758.246-1.617 0-2.39-1.336-2.39-2.918z" fill="#006285"></path>
  </symbol>
  <symbol  fill="currentColor" xmlns="http://www.w3.org/2000/svg" viewBox="0 0 74 71" id="map">
    <path d="M4.867 69.719c1.16 0 2.215-.387 3.621-1.196l17.086-9.21 18.633 10.44c1.477.81 3.023 1.196 4.535 1.196 1.477 0 2.918-.351 4.219-1.125l17.473-9.843c2.425-1.372 3.48-3.305 3.48-5.977V6.789c0-2.988-1.793-4.781-4.746-4.781-1.16 0-2.215.457-3.656 1.23l-17.719 9.844-18.422-11.11a8.42 8.42 0 00-4.254-1.16c-1.441 0-2.883.352-4.148 1.09l-17.367 9.88C1.176 13.151.086 15.015.086 17.686v47.286c0 2.988 1.793 4.746 4.781 4.746zm17.543-16.7L7.96 60.965c-.245.105-.456.21-.632.21-.422 0-.633-.316-.633-.808V19.516c0-.985.352-1.618 1.266-2.145l13.289-7.7a12.49 12.49 0 011.16-.632v43.98zm6.68.176V9.883c.351.176.738.387 1.09.598l14.73 8.894v42.68a61.628 61.628 0 01-1.406-.774L29.09 53.195zm22.535 9.352v-43.84l14.45-7.875c.175-.105.386-.176.562-.176.422 0 .703.317.703.774v40.64c0 1.02-.352 1.653-1.3 2.18l-12.798 7.418c-.527.316-1.09.633-1.617.879z" fill="#006285"></path>
  </symbol>
  <symbol  fill="currentColor" xmlns="http://www.w3.org/2000/svg" viewBox="0 0 78 67" id="antenna.radiowaves">
    <path d="M63.05 50.052c1.266 1.512 3.48 1.582 5.098-.176 5.871-6.293 9.106-14.906 9.106-24.187 0-9.282-3.305-18-9.106-24.188-1.617-1.758-3.832-1.687-5.098-.176-1.23 1.407-.843 3.2.528 4.747 4.64 5.132 7.207 12.023 7.207 19.617 0 7.558-2.567 14.449-7.207 19.582-1.371 1.547-1.758 3.34-.528 4.781zm-48.62 0c1.23-1.441.808-3.234-.528-4.781-4.64-5.133-7.207-12.024-7.207-19.582 0-7.594 2.566-14.485 7.207-19.617 1.336-1.547 1.758-3.34.527-4.747-1.265-1.511-3.48-1.582-5.097.176C3.53 7.69.226 16.407.226 25.69c0 9.281 3.234 17.894 9.106 24.187 1.617 1.758 3.832 1.688 5.097.176zm37.827-10.23c1.266 1.511 3.657 1.546 5.133-.211 3.059-3.692 4.781-8.649 4.781-13.922 0-5.309-1.722-10.266-4.78-13.922-1.477-1.793-3.868-1.723-5.134-.246-1.195 1.441-.703 3.129.457 4.746 1.864 2.531 2.989 5.906 2.989 9.422 0 3.48-1.055 6.925-2.989 9.386-1.16 1.618-1.652 3.34-.457 4.746zm-27.035 0c1.16-1.407.703-3.13-.457-4.747-1.933-2.46-3.023-5.906-3.023-9.386 0-3.516 1.16-6.89 3.023-9.422 1.16-1.617 1.617-3.305.457-4.746-1.265-1.477-3.656-1.547-5.133.246-3.058 3.656-4.78 8.613-4.78 13.922 0 5.273 1.722 10.23 4.78 13.922 1.477 1.757 3.868 1.722 5.133.21zm13.5 26.578c1.899 0 3.094-1.371 3.094-3.446V31.771c2.215-1.125 3.762-3.41 3.762-6.082 0-3.832-3.024-6.856-6.856-6.856-3.797 0-6.82 3.024-6.82 6.856 0 2.672 1.512 4.992 3.762 6.082v31.183c0 2.04 1.265 3.446 3.058 3.446z" fill="#006285"></path>
  </symbol>
  <symbol  fill="currentColor" xmlns="http://www.w3.org/2000/svg" viewBox="0 0 91 73" id="tv">
    <path d="M10.484 60.523h69.997c6.398 0 9.738-3.234 9.738-9.738v-40.57c0-6.504-3.34-9.738-9.738-9.738H10.484C4.086.477.746 3.71.746 10.215v40.57c0 6.504 3.34 9.738 9.738 9.738zm.457-6.82c-2.32 0-3.375-.95-3.375-3.34V10.637c0-2.39 1.055-3.34 3.375-3.34h69.082c2.32 0 3.375.95 3.375 3.34v39.726c0 2.39-1.054 3.34-3.375 3.34H10.941zM27.5 72.828h35.965a3.21 3.21 0 003.2-3.2c0-1.757-1.442-3.234-3.2-3.234H27.5c-1.758 0-3.2 1.477-3.2 3.235a3.21 3.21 0 003.2 3.2z" fill="#006285"></path>
  </symbol>

</svg>