<svg width="0" height="0" class="hidden">
  <symbol xmlns="http://www.w3.org/2000/svg" viewBox="0 0 63 30" id="logo">
    <path fill-rule="evenodd" clip-rule="evenodd" d="M49.223 29.575c4.497-2.96 7.75-7.215 7.878-11.45.409-8.425-9.547-12.037-18.2-12.86C26.935 4.117 13.983 6.95 4.218 11.11 11.167 4.847 26.335-.888 40.037.115 53.74 1.117 62.35 6.799 62.54 14.743c.385 7.544-7.858 14.323-13.317 14.832zM6.68 12.188L0 29.72h5.844l6.66-17.533H6.68zm9.334 0L9.357 29.72h6.98a28.866 28.866 0 004.878-.366 12.826 12.826 0 003.951-1.404 13.073 13.073 0 003.533-2.884 13.26 13.26 0 002.548-4.212c.833-2.21.988-3.963.47-5.26a4.177 4.177 0 00-1.172-1.65 5.14 5.14 0 00-1.909-1.035c-1.52-.475-3.641-.73-6.36-.73l-6.262.008zm4.701 3.013l-4.379 11.5h.988a8.993 8.993 0 003.319-.527c.981-.407 1.822-1.025 2.44-1.792.77-.843 1.458-2.081 2.08-3.688.576-1.482.747-2.631.576-3.434-.171-.803-.576-1.351-1.198-1.646-.623-.295-1.564-.418-2.848-.418l-.978.005zm24.824 8.13c-1.261 2.357-2.963 3.525-5.093 3.525-1.317 0-2.152-.402-2.506-1.205-.329-.823-.108-2.303.705-4.457.922-2.412 1.906-4.035 2.936-4.875 1.031-.84 2.16-1.261 3.382-1.261 2.304 0 3.062 1.297 2.206 3.91l5.415-.256c1.241-4.53-.918-6.777-6.443-6.777-3.341 0-6.166.786-8.48 2.393-2.315 1.606-3.984 3.816-5.074 6.647-1.09 2.831-1.05 5.024.043 6.614 1.093 1.59 3.292 2.41 6.551 2.41 2.545.035 5.04-.597 7.151-1.809 2.02-1.119 3.589-2.738 4.498-4.64l-5.291-.219z" ></path>
  </symbol>
  <symbol  xmlns="http://www.w3.org/2000/svg" viewBox="0 0 34 26" id="short_left">
    <path d="M8.312 10.917l7.459-7.48L12.833.5.333 13l12.5 12.5 2.938-2.938-7.459-7.479h25.355v-4.166H8.312z" ></path>
  </symbol>
  <symbol xmlns="http://www.w3.org/2000/svg" viewBox="0 0 34 26" id="short_right">
    <path d="M25.687 15.083l-7.458 7.48 2.938 2.937 12.5-12.5L21.167.5l-2.938 2.938 7.458 7.479H.333v4.166h25.354z" ></path>
  </symbol>
  <symbol  xmlns="http://www.w3.org/2000/svg" viewBox="0 0 16 16" id="tariff-arrow">
    <path d="M1 8h14m0 0L8 1m7 7l-7 7" stroke="#006285" stroke-width="1.5" stroke-linecap="round" stroke-linejoin="round"></path>
  </symbol>
  <symbol  xmlns="http://www.w3.org/2000/svg" viewBox="0 0 22 22" id="user">
    <mask id="a" maskUnits="userSpaceOnUse" x="0" y="0" width="22" height="22">
      <path  d="M0 0h22v22H0z"></path>
    </mask>
    <g mask="url(#a)">
      <path fill-rule="evenodd" clip-rule="evenodd" d="M6.417 6.417A4.589 4.589 0 0011 11a4.588 4.588 0 004.583-4.583A4.588 4.588 0 0011 1.833a4.589 4.589 0 00-4.583 4.584zm1.833 0A2.753 2.753 0 0111 3.667a2.753 2.753 0 012.75 2.75A2.753 2.753 0 0111 9.167a2.753 2.753 0 01-2.75-2.75zm11 11.916a6.425 6.425 0 00-6.417-6.416H9.167a6.424 6.424 0 00-6.417 6.416v.917h1.833v-.917a4.589 4.589 0 014.584-4.583h3.666a4.589 4.589 0 014.584 4.583v.917h1.833v-.917z" ></path>
    </g>
  </symbol>
  <symbol  xmlns="http://www.w3.org/2000/svg" viewBox="0 0 13 11" id="arrow.triangle.2.circlepath">
    <path d="M12.004 4.75h-.659C11.067 2.363 8.995.446 6.5.446a4.76 4.76 0 00-3.498 1.545c-.231.226-.222.527-.033.701.193.18.47.18.706-.037A3.841 3.841 0 016.5 1.42a3.885 3.885 0 013.86 3.329h-.72c-.362 0-.46.268-.249.56l1.125 1.592c.175.235.438.24.608 0l1.13-1.587c.212-.297.117-.565-.25-.565zM.996 5.885h.664c.278 2.387 2.35 4.303 4.84 4.303a4.77 4.77 0 003.508-1.55c.226-.225.216-.526.028-.7-.193-.18-.466-.18-.706.042A3.813 3.813 0 016.5 9.213a3.883 3.883 0 01-3.856-3.328h.716c.357 0 .46-.269.249-.56l-1.13-1.592c-.17-.236-.433-.24-.603 0L.746 5.32c-.216.296-.117.565.25.565z" ></path>
  </symbol>
  <symbol  xmlns="http://www.w3.org/2000/svg" viewBox="0 0 28 17" id="arrow-down">
    <path d="M27.387 3.595l-11.943 12.21c-.424.44-.895.644-1.444.644-.55 0-1.052-.22-1.46-.644L.612 3.595A1.814 1.814 0 01.08 2.292 1.84 1.84 0 011.93.425c.502 0 .988.204 1.35.565l10.703 11.002L24.72.99a1.887 1.887 0 011.35-.565 1.84 1.84 0 011.852 1.867c0 .502-.188.942-.534 1.303z"></path>
  </symbol>
  <symbol  xmlns="http://www.w3.org/2000/svg" viewBox="0 0 16 16" id="arrow-right">
    <path d="M1 8h14m0 0L8 1m7 7l-7 7" stroke="#37355B" stroke-width="1.5" stroke-linecap="round" stroke-linejoin="round"></path>
  </symbol>
  <symbol  xmlns="http://www.w3.org/2000/svg" viewBox="0 0 10 8" id="Check_mark">
    <path d="M8.6 1.257l-5.2 5.2-2.4-2.4" stroke="#006285" stroke-width="2" stroke-linecap="round" stroke-linejoin="round"></path>
  </symbol>
  <symbol  xmlns="http://www.w3.org/2000/svg" viewBox="0 0 43 43" id="chevron_right">
    <mask id="a" maskUnits="userSpaceOnUse" x="0" y="0" width="43" height="43">
      <path  d="M0 0h43v43H0z"></path>
    </mask>
    <g mask="url(#a)">
      <path d="M28.151 21.5L17.382 10.73l-2.533 2.534 8.235 8.235-8.235 8.235 2.533 2.534 10.77-10.77z"  ></path>
    </g>
  </symbol>
  <symbol   xmlns="http://www.w3.org/2000/svg" viewBox="0 0 21 54" id="line">
    <path   d="M14.016 0h6.196L6.196 53.5H0z"></path>
  </symbol>

  <symbol  xmlns="http://www.w3.org/2000/svg" viewBox="0 0 42 42" id="menu_alt_01">
    <mask id="a" maskUnits="userSpaceOnUse" x="0" y="0" width="42" height="42">
      <path  d="M0 0h42v42H0z"></path>
    </mask>
    <g mask="url(#a)">
      <path fill-rule="evenodd" clip-rule="evenodd" d="M5.25 10.5h31.5V14H5.25v-3.5zm31.5 12.25v-3.5H5.25v3.5h31.5zm0 8.75V28H21v3.5h15.75z"  ></path>
    </g>
  </symbol>
  <symbol  xmlns="http://www.w3.org/2000/svg" viewBox="0 0 22 22" id="search">
    <mask id="a" maskUnits="userSpaceOnUse" x="0" y="0" width="22" height="22">
      <path  d="M0 0h22v22H0z"></path>
    </mask>
    <g mask="url(#a)">
      <path fill-rule="evenodd" clip-rule="evenodd" d="M13.178 11.437a5.501 5.501 0 00-8.372-7.076 5.5 5.5 0 007.076 8.372l5.24 5.24 1.296-1.297-5.24-5.239s1.531-2.148 0 0zm-1.89-5.78a3.667 3.667 0 11-5.186 5.186 3.667 3.667 0 015.185-5.186s1.432 1.432 0 0z" ></path>
    </g>
  </symbol>


</svg>