<svg width="0" height="0" class="hidden">
  <symbol xmlns="http://www.w3.org/2000/svg" viewBox="0 0 75 42" id="logo">
    <path fill-rule="evenodd" clip-rule="evenodd" d="M58.813 41.418c5.36-4.147 9.255-10.114 9.406-16.031.48-11.808-11.403-16.865-21.745-18.003-14.286-1.618-29.76 2.377-41.442 8.192C13.325 6.802 31.455-1.238 47.814.178c16.335 1.415 26.651 9.355 26.878 20.48.456 10.57-9.38 20.052-15.904 20.76h.025zM7.99 17.068h6.954L6.979 41.62H0l7.99-24.552zm11.15 0h7.485c3.262 0 5.79.354 7.611 1.011 1.82.683 3.034 1.922 3.692 3.768.607 1.82.43 4.273-.556 7.358a19.684 19.684 0 01-3.035 5.891c-1.29 1.72-2.68 3.035-4.222 4.046-1.543.986-3.085 1.644-4.729 1.972-1.618.329-3.59.506-5.84.506H11.2l7.965-24.552h-.025zm5.614 4.223l-5.209 16.106h1.189c1.618 0 2.933-.252 3.97-.733 1.062-.455 2.023-1.315 2.907-2.503.91-1.189 1.745-2.908 2.478-5.158.683-2.074.885-3.692.683-4.805-.202-1.137-.683-1.896-1.441-2.3-.733-.38-1.871-.582-3.414-.582H24.73l.025-.025zm29.66 11.378l6.321.303c-1.087 2.655-2.882 4.83-5.36 6.499-2.478 1.694-5.336 2.528-8.547 2.528-3.894 0-6.498-1.138-7.838-3.363-1.315-2.225-1.34-5.31-.05-9.254 1.314-3.97 3.312-7.055 6.068-9.305s6.144-3.338 10.14-3.338c6.598 0 9.178 3.136 7.686 9.482l-6.473.354c1.011-3.666.126-5.487-2.63-5.487-1.467 0-2.781.582-4.046 1.77-1.239 1.189-2.402 3.44-3.514 6.827-.961 3.01-1.264 5.083-.835 6.246.43 1.138 1.442 1.694 2.984 1.694 2.554 0 4.577-1.644 6.094-4.93v-.026zm16.739-6.979l.025-.202c.278-7.08-3.262-12.213-8.117-15.525-4.728-3.237-10.822-4.88-16.233-5.512-3.767-.405-7.56-.455-11.378-.228l-4.5.48 1.971-.505c4.83-1.087 9.836-1.543 14.691-1.138 15.222 1.315 24.021 8.445 24.198 17.674.076 1.644-.152 3.262-.607 4.83l-.025.101-.025.025z" ></path>

  </symbol>
  <symbol  xmlns="http://www.w3.org/2000/svg" viewBox="0 0 34 26" id="short_left">
    <path d="M8.312 10.917l7.459-7.48L12.833.5.333 13l12.5 12.5 2.938-2.938-7.459-7.479h25.355v-4.166H8.312z" ></path>
  </symbol>
  <symbol xmlns="http://www.w3.org/2000/svg" viewBox="0 0 34 26" id="short_right">
    <path d="M25.687 15.083l-7.458 7.48 2.938 2.937 12.5-12.5L21.167.5l-2.938 2.938 7.458 7.479H.333v4.166h25.354z" ></path>
  </symbol>
  <symbol  xmlns="http://www.w3.org/2000/svg" viewBox="0 0 16 16" id="tariff-arrow">
    <path d="M1 8h14m0 0L8 1m7 7l-7 7" stroke="#006285" stroke-width="1.5" stroke-linecap="round" stroke-linejoin="round"></path>
  </symbol>
  <symbol  xmlns="http://www.w3.org/2000/svg" viewBox="0 0 22 22" id="user">
    <mask id="a" maskUnits="userSpaceOnUse" x="0" y="0" width="22" height="22">
      <path  d="M0 0h22v22H0z"></path>
    </mask>
    <g mask="url(#a)">
      <path fill-rule="evenodd" clip-rule="evenodd" d="M6.417 6.417A4.589 4.589 0 0011 11a4.588 4.588 0 004.583-4.583A4.588 4.588 0 0011 1.833a4.589 4.589 0 00-4.583 4.584zm1.833 0A2.753 2.753 0 0111 3.667a2.753 2.753 0 012.75 2.75A2.753 2.753 0 0111 9.167a2.753 2.753 0 01-2.75-2.75zm11 11.916a6.425 6.425 0 00-6.417-6.416H9.167a6.424 6.424 0 00-6.417 6.416v.917h1.833v-.917a4.589 4.589 0 014.584-4.583h3.666a4.589 4.589 0 014.584 4.583v.917h1.833v-.917z" ></path>
    </g>
  </symbol>
  <symbol  xmlns="http://www.w3.org/2000/svg" viewBox="0 0 13 11" id="arrow.triangle">
    <path d="M12.004 4.75h-.659C11.067 2.363 8.995.446 6.5.446a4.76 4.76 0 00-3.498 1.545c-.231.226-.222.527-.033.701.193.18.47.18.706-.037A3.841 3.841 0 016.5 1.42a3.885 3.885 0 013.86 3.329h-.72c-.362 0-.46.268-.249.56l1.125 1.592c.175.235.438.24.608 0l1.13-1.587c.212-.297.117-.565-.25-.565zM.996 5.885h.664c.278 2.387 2.35 4.303 4.84 4.303a4.77 4.77 0 003.508-1.55c.226-.225.216-.526.028-.7-.193-.18-.466-.18-.706.042A3.813 3.813 0 016.5 9.213a3.883 3.883 0 01-3.856-3.328h.716c.357 0 .46-.269.249-.56l-1.13-1.592c-.17-.236-.433-.24-.603 0L.746 5.32c-.216.296-.117.565.25.565z" ></path>
  </symbol>
  <symbol  xmlns="http://www.w3.org/2000/svg" viewBox="0 0 28 17" id="arrow-down">
    <path d="M27.387 3.595l-11.943 12.21c-.424.44-.895.644-1.444.644-.55 0-1.052-.22-1.46-.644L.612 3.595A1.814 1.814 0 01.08 2.292 1.84 1.84 0 011.93.425c.502 0 .988.204 1.35.565l10.703 11.002L24.72.99a1.887 1.887 0 011.35-.565 1.84 1.84 0 011.852 1.867c0 .502-.188.942-.534 1.303z"></path>
  </symbol>
  <symbol  xmlns="http://www.w3.org/2000/svg" viewBox="0 0 16 16" id="arrow-right">
    <path d="M1 8h14m0 0L8 1m7 7l-7 7" stroke="#37355B" stroke-width="1.5" stroke-linecap="round" stroke-linejoin="round"></path>
  </symbol>
   <symbol  xmlns="http://www.w3.org/2000/svg" viewBox="0 0 16 16" id="arrow-right-none">
    <path d="M1 8h14m0 0L8 1m7 7l-7 7"  stroke-width="1.5" stroke-linecap="round" stroke-linejoin="round"></path>
  </symbol>
  <symbol  xmlns="http://www.w3.org/2000/svg" viewBox="0 0 10 8" id="Check_mark">
    <path d="M8.6 1.257l-5.2 5.2-2.4-2.4" stroke="#006285" stroke-width="2" stroke-linecap="round" stroke-linejoin="round"></path>
  </symbol>
 
<symbol  xmlns="http://www.w3.org/2000/svg" viewBox="0 0 43 43" id="chevron_right">
    <mask id="a" maskUnits="userSpaceOnUse" x="0" y="0" width="43" height="43">
      <path  d="M0 0h43v43H0z"></path>
    </mask>
    <g mask="url(#a)">
      <path d="M28.151 21.5L17.382 10.73l-2.533 2.534 8.235 8.235-8.235 8.235 2.533 2.534 10.77-10.77z"  ></path>
    </g>
  </symbol>

 <symbol fill="none" xmlns="http://www.w3.org/2000/svg" viewBox="0 0 10 8" id="check_mark">
    <path d="M8.6 1.257l-5.2 5.2-2.4-2.4" stroke="#006285" stroke-width="2" stroke-linecap="round" stroke-linejoin="round"></path>
  </symbol>


  <symbol   xmlns="http://www.w3.org/2000/svg" viewBox="0 0 21 54" id="line">
    <path   d="M14.016 0h6.196L6.196 53.5H0z"></path>
  </symbol>

  <symbol  xmlns="http://www.w3.org/2000/svg" viewBox="0 0 42 42" id="menu_alt_01">
    <mask id="a" maskUnits="userSpaceOnUse" x="0" y="0" width="42" height="42">
      <path  d="M0 0h42v42H0z"></path>
    </mask>
    <g mask="url(#a)">
      <path fill-rule="evenodd" clip-rule="evenodd" d="M5.25 10.5h31.5V14H5.25v-3.5zm31.5 12.25v-3.5H5.25v3.5h31.5zm0 8.75V28H21v3.5h15.75z"  ></path>
    </g>
  </symbol>
  <symbol  xmlns="http://www.w3.org/2000/svg" viewBox="0 0 22 22" id="search">
    <mask id="a" maskUnits="userSpaceOnUse" x="0" y="0" width="22" height="22">
      <path  d="M0 0h22v22H0z"></path>
    </mask>
    <g mask="url(#a)">
      <path fill-rule="evenodd" clip-rule="evenodd" d="M13.178 11.437a5.501 5.501 0 00-8.372-7.076 5.5 5.5 0 007.076 8.372l5.24 5.24 1.296-1.297-5.24-5.239s1.531-2.148 0 0zm-1.89-5.78a3.667 3.667 0 11-5.186 5.186 3.667 3.667 0 015.185-5.186s1.432 1.432 0 0z" ></path>
    </g>
  </symbol>


<symbol fill="none" xmlns="http://www.w3.org/2000/svg" viewBox="0 0 31 36" id="appstore">
    <path d="M25.115 19.018c-.017-2.93 1.31-5.139 3.992-6.767-1.5-2.149-3.769-3.33-6.76-3.558-2.831-.223-5.929 1.65-7.063 1.65-1.2 0-3.94-1.573-6.098-1.573C4.735 8.84.004 12.32.004 19.4c0 2.093.382 4.255 1.147 6.48 1.023 2.93 4.71 10.111 8.555 9.995 2.011-.047 3.434-1.427 6.05-1.427 2.54 0 3.854 1.427 6.098 1.427 3.88-.056 7.214-6.583 8.185-9.522-5.204-2.453-4.924-7.184-4.924-7.335zM20.599 5.913C22.777 3.326 22.579.97 22.515.125c-1.925.112-4.15 1.31-5.418 2.784C15.7 4.491 14.88 6.446 15.056 8.65c2.08.159 3.979-.91 5.543-2.737z" fill="#fff"></path>
  </symbol>
  <symbol fill="none" xmlns="http://www.w3.org/2000/svg" viewBox="0 0 40 40" id="googleplay">
    <path d="M27.564 25.36c3.994-2.212 7.021-3.899 7.282-4.03.835-.448 1.697-1.633 0-2.554-.548-.29-3.497-1.924-7.282-4.03l-5.246 5.346 5.246 5.269z" fill="#FFD900"></path>
    <path d="M22.318 20.092L5.612 37.084c.392.052.835-.053 1.357-.343 1.096-.605 12.712-7.007 20.595-11.379l-5.246-5.27z" fill="#F43249"></path>
    <path d="M22.318 20.093l5.246-5.322S8.144 4.076 6.969 3.445a2.015 2.015 0 00-1.383-.265l16.732 16.912z" fill="#00EE76"></path>
    <path d="M22.318 20.093L5.586 3.18c-.679.159-1.253.764-1.253 2.002v29.9c0 1.133.444 1.95 1.279 2.028l16.705-17.018z" fill="#00D3FF"></path>
  </symbol>


  
  <symbol  xmlns="http://www.w3.org/2000/svg" viewBox="0 0 30 29" id="telegram">
    <path d="M25.2 3.606c-.35.015-.67.116-.952.227-.26.102-1.194.495-2.68 1.118a5188.81 5188.81 0 00-5.559 2.335c-4.2 1.766-8.92 3.754-11.34 4.771-.083.035-.42.138-.793.423-.373.285-.788.904-.788 1.581 0 .546.273 1.102.602 1.42.33.32.663.468.942.58v-.003c.942.375 3.757 1.502 4.427 1.77.238.712 1.258 3.762 1.501 4.529h-.002c.171.542.338.896.57 1.191.117.148.255.282.425.388.066.04.138.072.21.101.01.004.021.005.031.01l-.028-.008c.021.009.04.021.061.029.035.012.06.011.107.02.165.052.33.086.483.086.657 0 1.06-.357 1.06-.357l.026-.018 2.837-2.4 3.474 3.214c.063.09.56.762 1.71.762.687 0 1.23-.34 1.577-.696.347-.356.564-.721.661-1.215l.002-.003c.078-.399 3.404-17.098 3.404-17.098l-.008.028c.104-.462.134-.909.012-1.364a1.958 1.958 0 00-.85-1.133 1.995 1.995 0 00-1.123-.288zm-.477 2.646c-.132.66-3.111 15.626-3.295 16.565l-5.018-4.642-3.39 2.867.938-3.672s6.48-6.56 6.87-6.94c.315-.307.38-.414.38-.52 0-.142-.072-.243-.24-.243-.151 0-.357.145-.465.212-1.382.862-7.268 4.216-10.162 5.863-.175-.07-2.79-1.12-4.199-1.683a52773.5 52773.5 0 0116.36-6.88c1.254-.526 1.908-.798 2.22-.927zm-3.33 16.737h.002l-.003.007c.002-.008 0 0 0-.007z" ></path>
  </symbol>
  <symbol  xmlns="http://www.w3.org/2000/svg" viewBox="0 0 30 29" id="messenger">
    <path d="M15.333 2.417c-6.662 0-12.083 5.15-12.083 11.479 0 3.075 1.315 6.027 3.625 8.183v5.251l4.93-2.464c1.159.337 2.344.51 3.528.51 6.663 0 12.084-5.15 12.084-11.48s-5.42-11.48-12.084-11.48zm1.41 15.004L13.22 14.6l-6.344 2.82 7.048-7.049 3.525 2.82 6.344-2.82-7.049 7.049z" ></path>
  </symbol>
  <symbol xmlns="http://www.w3.org/2000/svg" viewBox="0 0 30 29" id="facebook">
    <path d="M15 2.417c-6.674 0-12.083 5.41-12.083 12.083 0 6.519 5.165 11.818 11.625 12.06v-8.388h-2.831V14.88h2.831v-2.422c0-2.808 1.717-4.34 4.223-4.34.845-.002 1.688.042 2.528.128v2.936h-1.725c-1.366 0-1.632.645-1.632 1.597v2.097H21.2l-.424 3.292h-2.858v8.047c5.261-1.306 9.166-6.048 9.166-11.714 0-6.674-5.41-12.083-12.083-12.083z" ></path>
  </symbol>
  <symbol xmlns="http://www.w3.org/2000/svg" viewBox="0 0 29 29" id="instagram">
    <path d="M9.667 3.625a6.042 6.042 0 00-6.042 6.042v9.666a6.042 6.042 0 006.042 6.042h9.666a6.042 6.042 0 006.042-6.042V9.667a6.042 6.042 0 00-6.042-6.042H9.667zM21.75 6.042a1.209 1.209 0 110 2.417 1.209 1.209 0 010-2.417zM14.5 8.458a6.042 6.042 0 11-.001 12.085A6.042 6.042 0 0114.5 8.458zm0 2.417a3.625 3.625 0 100 7.25 3.625 3.625 0 000-7.25z" ></path>
  </symbol>
  <symbol xmlns="http://www.w3.org/2000/svg" viewBox="0 0 30 29" id="ok">
    <path d="M14.667 6.042c1.34 0 2.43 1.09 2.43 2.43a2.432 2.432 0 01-2.43 2.427 2.433 2.433 0 01-2.431-2.426c0-1.34 1.09-2.431 2.43-2.431zm0 8.467a6.04 6.04 0 000-12.078 6.047 6.047 0 00-6.042 6.042 6.046 6.046 0 006.042 6.036zm2.374 4.617a10.843 10.843 0 003.408-1.412 1.719 1.719 0 00-1.832-2.907 7.456 7.456 0 01-7.901 0 1.72 1.72 0 00-2.374.538 1.716 1.716 0 00.543 2.37 10.797 10.797 0 003.408 1.41l-3.286 3.286c-.67.67-.67 1.76.005 2.43a1.713 1.713 0 002.43 0l3.225-3.223 3.228 3.224c.67.67 1.756.67 2.431 0 .67-.67.67-1.76 0-2.431l-3.285-3.285z" ></path>
  </symbol>
  <symbol  xmlns="http://www.w3.org/2000/svg" viewBox="0 0 30 29" id="vk">
    <path d="M14.833 2.417C8.16 2.417 2.75 7.827 2.75 14.5c0 6.674 5.41 12.083 12.083 12.083 6.674 0 12.084-5.41 12.084-12.083 0-6.674-5.41-12.083-12.084-12.083zm6.664 16.916h-1.581c-.6 0-.79-.593-1.835-1.812-.906-1.057-1.375-1.208-1.605-1.208-.324 0-.434.08-.434.564v1.796c0 .402-.104.66-1.118.66-1.674 0-3.565-1.133-4.999-3.096-1.98-2.708-2.342-5.063-2.342-5.498 0-.242.076-.468.538-.468h1.596c.4 0 .554.177.707.645.71 2.376 1.767 4.188 2.304 4.188.2 0 .293-.096.293-.628v-2.19c-.062-1.128-.604-1.225-.604-1.628 0-.195.128-.387.374-.387H15.6c.339 0 .443.193.443.612v3.134c0 .354.27.483.377.483.199 0 .386.01.755-.378 1.136-1.339 2.122-3.368 2.122-3.368.108-.241.292-.483.692-.483h1.582c.354 0 .504.158.513.378a.745.745 0 01-.037.252c-.2.966-2.244 3.837-2.228 3.837-.087.149-.145.255-.151.367-.006.107.037.218.15.375.169.242.536.686.907 1.136.67.81 1.208 1.661 1.325 2.01.026.094.037.18.034.255-.008.298-.22.452-.586.452z" ></path>
  </symbol>

  <symbol xmlns="http://www.w3.org/2000/svg" viewBox="0 0 29 29" id="arrow.backward">
    <path d="M5.88 14.133c0 .273.118.546.327.746l6.008 6c.219.208.455.309.72.309.573 0 .991-.41.991-.965a.967.967 0 00-.3-.72l-2.048-2.075-2.64-2.412 2.121.127h11.033c.6 0 1.02-.418 1.02-1.01 0-.6-.42-1.02-1.02-1.02H11.059l-2.112.128 2.63-2.412 2.049-2.076a.967.967 0 00.3-.72c0-.554-.418-.964-.992-.964-.264 0-.51.1-.746.328l-5.98 5.98c-.21.2-.329.474-.329.756z" ></path>
  </symbol>

  <symbol  xmlns="http://www.w3.org/2000/svg" viewBox="0 0 7 12" id="button-nav-next">
    <path fill-rule="evenodd" clip-rule="evenodd" d="M.293.293a1 1 0 000 1.414L4.586 6 .293 10.293a1 1 0 101.414 1.414l5-5a1 1 0 000-1.414l-5-5a1 1 0 00-1.414 0z" ></path>
  </symbol>
  <symbol  xmlns="http://www.w3.org/2000/svg" viewBox="0 0 7 12" id="button-nav-prev">
    <path fill-rule="evenodd" clip-rule="evenodd" d="M6.707 11.707a1 1 0 000-1.414L2.414 6l4.293-4.293A1 1 0 005.293.293l-5 5a1 1 0 000 1.414l5 5a1 1 0 001.414 0z" ></path>
  </symbol>

    <symbol  xmlns="http://www.w3.org/2000/svg" viewBox="0 0 24 24" id="phone">
    <mask id="a" maskUnits="userSpaceOnUse" x="0" y="0" width="24" height="24">
      <path d="M0 0h24v24H0z"></path>
    </mask>
    <g mask="url(#a)">
      <path fill-rule="evenodd" clip-rule="evenodd" d="M16.293 12.293L14.7 13.887c-.739-.22-2.118-.72-2.992-1.594-.874-.874-1.374-2.253-1.594-2.992l1.594-1.594a.999.999 0 000-1.414l-4-4a.999.999 0 00-1.414 0L3.581 5.005c-.38.38-.594.902-.586 1.435.023 1.424.4 6.37 4.298 10.268 3.898 3.898 8.844 4.274 10.27 4.298h.027c.528 0 1.027-.208 1.405-.586l2.712-2.712a.999.999 0 000-1.414l-4-4.001a.999.999 0 00-1.414 0zm-7.586 3c-3.366-3.366-3.692-7.651-3.712-8.874L7 4.414 9.586 7 8.293 8.293a1 1 0 00-.272.912c.024.115.611 2.842 2.271 4.502 1.66 1.66 4.387 2.247 4.502 2.271a.991.991 0 00.912-.271L17 14.414 19.586 17l-2.006 2.005c-1.248-.021-5.518-.356-8.873-3.712z"></path>
    </g>
  </symbol>
  <symbol  xmlns="http://www.w3.org/2000/svg" viewBox="0 0 24 24" id="lock">
    <path fill-rule="evenodd" clip-rule="evenodd" d="M9 16a3 3 0 116 0 3 3 0 01-6 0zm3-1a1 1 0 100 2 1 1 0 000-2z"></path>
    <path fill-rule="evenodd" clip-rule="evenodd" d="M6 9V6.444c0-1.484.664-2.88 1.8-3.89C8.932 1.548 10.444 1 12 1s3.068.548 4.2 1.554c1.136 1.01 1.8 2.406 1.8 3.89V9h1c1.737 0 3 1.508 3 3.182v7.636C22 21.492 20.737 23 19 23H5c-1.737 0-3-1.508-3-3.182v-7.636C2 10.508 3.263 9 5 9h1zm3.129-4.95C9.872 3.387 10.904 3 12 3s2.128.388 2.871 1.05C15.611 4.706 16 5.57 16 6.443V9H8V6.444c0-.873.39-1.737 1.129-2.395zM19 11c.472 0 1 .445 1 1.182v7.636c0 .737-.528 1.182-1 1.182H5c-.472 0-1-.445-1-1.182v-7.636C4 11.445 4.528 11 5 11h14z" ></path>
  </symbol>

  <symbol  xmlns="http://www.w3.org/2000/svg" viewBox="0 0 24 24" id="show">
    <mask id="a" maskUnits="userSpaceOnUse" x="0" y="0" width="24" height="24">
      <path  d="M0 0h24v24H0z"></path>
    </mask>
    <g mask="url(#a)">
      <path fill-rule="evenodd" clip-rule="evenodd" d="M9 12c0 1.642 1.358 3 3 3 1.641 0 3-1.358 3-3 0-1.641-1.359-3-3-3a3.02 3.02 0 00-3 3zm-6.895-.316L2 12l.104.316C2.126 12.383 4.408 19 12 19c7.592 0 9.874-6.617 9.895-6.684L22 12l-.104-.316C21.874 11.617 19.592 5 12 5c-7.592 0-9.874 6.617-9.895 6.684zM4.117 12c.5-1.158 2.564-5 7.883-5 5.322 0 7.384 3.846 7.883 5-.5 1.158-2.564 5-7.883 5-5.322 0-7.384-3.846-7.883-5z" ></path>
    </g>
  </symbol>


  <symbol  xmlns="http://www.w3.org/2000/svg" viewBox="0 0 12 12" id="login-close">
    <path d="M10.658.167L6 4.825 1.34.167.167 1.342 4.825 6 .167 10.658l1.174 1.175L6 7.175l4.658 4.658 1.175-1.175L7.175 6l4.658-4.658L10.658.167z" fill="#D0D7DD"></path>
  </symbol>
  <symbol xmlns="http://www.w3.org/2000/svg" viewBox="0 0 14 14" id="login-backward">
    <path d="M12.834 7H1.167m0 0L7 12.833M1.167 7L7 1.167" stroke="#D0D7DD" stroke-width="1.5" stroke-linecap="round" stroke-linejoin="round"></path>
  </symbol>


</svg>